<?xml version="1.0" encoding="utf-8"?>
<!-- Generator: Adobe Illustrator 16.0.0, SVG Export Plug-In . SVG Version: 6.00 Build 0)  -->
<!DOCTYPE svg PUBLIC "-//W3C//DTD SVG 1.1//EN" "http://www.w3.org/Graphics/SVG/1.1/DTD/svg11.dtd">
<svg version="1.1" id="ємблема_1_" xmlns="http://www.w3.org/2000/svg" xmlns:xlink="http://www.w3.org/1999/xlink" x="0px"
	 y="0px" width="80px" height="80px" viewBox="0 0 80 80" enable-background="new 0 0 80 80" xml:space="preserve">
<path fill="#2F3F5F" d="M80,74.331C80,77.462,77.462,80,74.331,80H5.669C2.538,80,0,77.462,0,74.331V5.669C0,2.538,2.538,0,5.669,0
	h68.662C77.462,0,80,2.538,80,5.669V74.331z"/>
<g id="ємблема">
	<g>
		<path fill="#FFCC00" d="M13.383,73.764c-0.083-0.239-1.278-0.735-1.293-1.008c-0.02-0.332,0.789-0.426,0.833-0.555
			c-0.405-0.332-1.635-0.606-1.635-0.606c-0.126-0.117,0.235-0.927,0.131-1.24c-0.154-0.467-1.083-0.611-1.083-0.611
			c0.087,0.383,0.052,0.714-0.401,0.907c-0.596,0.257-0.983-0.897-1.524-1.112c-0.745-0.298-2.921-0.754-2.221-0.275
			c0,0,0.559,0.134,0.52,0.291c-0.013,0.045-0.743,0.456-0.743,0.456c-0.323,0.2,1.264,0.078,1.616,0.222
			c0.44,0.181,0.772,1.134-0.189,1.233c-0.408-0.046-0.885-0.776-0.885-0.776l-0.253,0.665c-0.217,0.569,1.114,1.285,1.162,1.807
			c0.012,0.128-0.06,0.337-0.06,0.337c-0.085,0.199-0.43,0.538-0.242,0.646c0.084,0.049,0.25-0.258,0.32-0.353
			c0.071-0.093,0.153,0.009,0.214-0.067c0.109-0.138,0.036-0.349,0.084-0.531c0.049-0.183,0.22-0.339,0.326-0.294
			c0.211,0.082,0.041,0.614,0.041,0.614l0.1,0.716c0.028,0.197,0.09-0.406,0.48-0.463c0,0,0.443,1.199,0.698,1.201
			c0.265,0.003,0.195-0.636,0.338-0.496c0.78,0.764,2.383,0.578,3.334,0.637c0,0-0.796-0.668-0.607-1.065
			C12.602,73.709,13.311,73.846,13.383,73.764z M9.493,70.223c0,0,0.36,0.104,0.483,0c0.121-0.102,0.08-0.466,0.08-0.466
			C9.968,69.944,9.836,70.118,9.493,70.223z M6.503,73.637c-0.102,0-0.183,0.082-0.183,0.184s0.082,0.185,0.183,0.185
			c0.101,0,0.183-0.083,0.183-0.185C6.688,73.719,6.604,73.637,6.503,73.637z M5.869,73.558c-0.101,0-0.184,0.08-0.184,0.182
			s0.083,0.185,0.184,0.185c0.102,0,0.183-0.083,0.183-0.185S5.971,73.558,5.869,73.558z M5.332,73.558
			c-0.102,0-0.184,0.08-0.184,0.182s0.082,0.185,0.184,0.185c0.101,0,0.184-0.083,0.184-0.185S5.433,73.558,5.332,73.558z
			 M6.797,73.052c-0.102,0-0.183,0.083-0.183,0.184c0,0.102,0.082,0.185,0.183,0.185c0.101,0,0.183-0.083,0.183-0.185
			C6.98,73.135,6.898,73.052,6.797,73.052z M6.411,73.188c0-0.102-0.083-0.183-0.184-0.183s-0.183,0.081-0.183,0.183
			s0.082,0.184,0.183,0.184S6.411,73.289,6.411,73.188z M5.809,73.203c0-0.101-0.083-0.185-0.184-0.185
			c-0.102,0-0.183,0.084-0.183,0.185c0,0.102,0.082,0.184,0.183,0.184C5.726,73.387,5.809,73.305,5.809,73.203z M6.622,72.684
			c0-0.102-0.082-0.185-0.183-0.185c-0.101,0-0.183,0.083-0.183,0.185s0.082,0.184,0.183,0.184
			C6.541,72.867,6.622,72.785,6.622,72.684z M5.739,72.434c-0.101,0-0.183,0.084-0.183,0.185c0,0.102,0.082,0.184,0.183,0.184
			c0.102,0,0.183-0.082,0.183-0.184C5.922,72.518,5.84,72.434,5.739,72.434z M6.232,72.114c0-0.101-0.082-0.184-0.183-0.184
			c-0.101,0-0.184,0.083-0.184,0.184c0,0.102,0.083,0.185,0.184,0.185C6.15,72.299,6.232,72.216,6.232,72.114z M27.012,73.635
			c-0.082-0.238-1.277-0.734-1.293-1.008c-0.02-0.332,0.789-0.426,0.833-0.555c-0.405-0.331-1.634-0.605-1.634-0.605
			c-0.127-0.118,0.236-0.927,0.131-1.24c-0.154-0.469-1.083-0.613-1.083-0.613c0.086,0.384,0.052,0.715-0.401,0.909
			c-0.595,0.256-0.982-0.898-1.524-1.113c-0.743-0.296-2.921-0.753-2.221-0.274v-0.001c0,0,0.56,0.133,0.52,0.291
			c-0.012,0.045-0.743,0.456-0.743,0.456c-0.323,0.199,1.264,0.077,1.615,0.222c0.44,0.18,0.772,1.133-0.188,1.233
			c-0.408-0.047-0.885-0.777-0.885-0.777l-0.254,0.666c-0.217,0.569,1.115,1.283,1.163,1.807c0.012,0.127-0.061,0.337-0.061,0.337
			c-0.085,0.199-0.43,0.536-0.242,0.646c0.085,0.05,0.249-0.257,0.32-0.352c0.07-0.093,0.153,0.009,0.214-0.068
			c0.109-0.138,0.036-0.348,0.084-0.53c0.049-0.184,0.219-0.339,0.326-0.296c0.211,0.084,0.041,0.616,0.041,0.616L21.83,74.1
			c0.027,0.197,0.09-0.406,0.48-0.463c0,0,0.442,1.198,0.698,1.199c0.264,0.003,0.196-0.635,0.338-0.494
			c0.78,0.762,2.382,0.578,3.334,0.637c0,0-0.796-0.669-0.607-1.066C26.231,73.579,26.939,73.716,27.012,73.635z M19.949,73.691
			c0,0.102,0.082,0.185,0.183,0.185c0.102,0,0.184-0.083,0.184-0.185s-0.083-0.184-0.184-0.184
			C20.031,73.508,19.949,73.59,19.949,73.691z M19.499,73.793c0.101,0,0.183-0.081,0.183-0.183c0-0.101-0.082-0.184-0.183-0.184
			c-0.102,0-0.184,0.083-0.184,0.184C19.314,73.712,19.396,73.793,19.499,73.793z M18.961,73.427c-0.103,0-0.184,0.083-0.184,0.184
			c0,0.102,0.082,0.183,0.184,0.183c0.101,0,0.183-0.081,0.183-0.183C19.146,73.51,19.062,73.427,18.961,73.427z M20.425,72.923
			c-0.101,0-0.184,0.084-0.184,0.184c0,0.102,0.083,0.185,0.184,0.185c0.102,0,0.184-0.083,0.184-0.185
			C20.609,73.007,20.527,72.923,20.425,72.923z M19.672,73.059c0,0.102,0.082,0.182,0.183,0.182c0.103,0,0.184-0.08,0.184-0.182
			s-0.082-0.185-0.184-0.185C19.755,72.874,19.672,72.957,19.672,73.059z M19.438,73.074c0-0.101-0.082-0.183-0.184-0.183
			c-0.102,0-0.183,0.082-0.183,0.183c0,0.102,0.082,0.184,0.183,0.184C19.356,73.258,19.438,73.176,19.438,73.074z M20.068,72.371
			c-0.102,0-0.184,0.082-0.184,0.183c0,0.102,0.082,0.184,0.184,0.184c0.101,0,0.183-0.082,0.183-0.184
			C20.251,72.453,20.169,72.371,20.068,72.371z M19.552,72.488c0-0.1-0.082-0.182-0.184-0.182c-0.102,0-0.183,0.082-0.183,0.182
			c0,0.103,0.082,0.185,0.183,0.185C19.469,72.673,19.552,72.591,19.552,72.488z M19.678,71.803c-0.102,0-0.184,0.08-0.184,0.182
			s0.082,0.185,0.184,0.185c0.101,0,0.183-0.083,0.183-0.185S19.779,71.803,19.678,71.803z M23.605,70.093
			c0.121-0.102,0.08-0.467,0.08-0.467c-0.089,0.189-0.22,0.363-0.564,0.467C23.122,70.093,23.481,70.195,23.605,70.093z
			 M18.496,73.903l-0.25-0.509c0,0,0.367-0.523,0.5-0.812c0.171-0.375,0.462-0.775,0.374-1.177c0,0-0.121-0.34-0.114-0.516
			c0.004-0.137,0.239-0.453,0.114-0.396c0,0-0.591,0.471-0.927,0.425c-0.159-0.021-0.221-0.47-0.457-0.325
			c0,0-0.226,0.565-0.5,0.515c-0.219-0.563-0.019-0.74,0.155-1.027c0.09,0.109,0.252,0.156,0.387,0.108
			c0.134-0.047,0.232-0.185,0.233-0.327c0-0.183-0.167-0.35-0.351-0.35c-0.132-0.016-0.293,0.203-0.448,0.367
			c0,0-0.308,0.732-0.608,0.683c-0.241-0.481-0.381-1.037-0.85-1.337c-0.15-0.097-0.493-0.087-0.729-0.166
			c-0.617-0.357-1.043-0.211-1.551-0.281l-1.178,0.068c-0.167,0.011,0.38,0.187,0.356,0.35c-0.022,0.149-0.403,0.214-0.403,0.214
			l-1.08,0.165c-0.093,0.016,0.835,0.614,0.919,1.078c0.021,0.117-0.121,0.334-0.121,0.334s0.657,0.634,1.08,0.752
			c0.213,0.059,0.661-0.046,0.661-0.046s0.123-0.166,0.213-0.166c0.218-0.001,0.688,0.471,0.881,0.37l0.791-0.355l-0.254,0.57
			c-0.113,0.058-0.189,0.182-0.189,0.311c0.017,0.169,0.176,0.313,0.348,0.313c0.171,0,0.331-0.145,0.348-0.313
			c0-0.117-0.063-0.231-0.162-0.293c0.701-0.437,1.195-0.237,1.276-0.126l0.32,0.448c0.198,0.276-0.533-0.113-0.821-0.008
			c-0.219,0.081-0.24,0.484-0.471,0.517c0,0-0.476,0.035-0.64,0.183c-0.438,0.395-0.472,1.703-0.333,1.579
			c0,0,0.213-0.264,0.364-0.327c0.239-0.102,0.651,0.175,0.775-0.053c0,0,0.197-0.33,0.35-0.425
			c0.227-0.138,0.707-0.067,0.707-0.067s0.177-0.246,0.31-0.305c0.159-0.068,0.458-0.054,0.502,0.113
			c0.205,0.771,0.727,1.315,1.095,1.32c0.302,0.014,0.761-0.361,0.761-0.361l0.593-0.299C19.788,74.333,18.693,74.304,18.496,73.903
			z M17.535,73.76c-0.151,0-0.292,0.126-0.311,0.275c0.001,0.169,0.164,0.32,0.333,0.311c0.154-0.015,0.287-0.155,0.287-0.311
			C17.827,73.886,17.686,73.76,17.535,73.76z M16.542,69.672L16.542,69.672c0,0.153,0.124,0.276,0.275,0.276
			c0.152,0,0.276-0.125,0.275-0.276c0-0.151-0.124-0.274-0.275-0.275C16.667,69.396,16.542,69.521,16.542,69.672z M41.001,73.635
			c-0.082-0.238-1.277-0.734-1.293-1.008c-0.02-0.332,0.79-0.426,0.833-0.555c-0.405-0.331-1.634-0.605-1.634-0.605
			c-0.127-0.118,0.236-0.927,0.131-1.24c-0.154-0.469-1.083-0.613-1.083-0.613c0.086,0.384,0.052,0.715-0.401,0.909
			c-0.596,0.256-0.983-0.898-1.523-1.113c-0.745-0.296-2.921-0.753-2.221-0.274v-0.001c0,0,0.56,0.133,0.52,0.291
			c-0.013,0.045-0.743,0.456-0.743,0.456c-0.323,0.199,1.265,0.077,1.615,0.222c0.439,0.18,0.773,1.133-0.189,1.233
			c-0.408-0.047-0.885-0.777-0.885-0.777l-0.254,0.666c-0.216,0.569,1.115,1.283,1.163,1.807c0.012,0.127-0.06,0.337-0.06,0.337
			c-0.085,0.199-0.43,0.536-0.242,0.646c0.084,0.05,0.249-0.257,0.319-0.352c0.071-0.093,0.153,0.009,0.214-0.068
			c0.109-0.138,0.036-0.348,0.086-0.53c0.048-0.184,0.218-0.339,0.325-0.296c0.211,0.084,0.041,0.616,0.041,0.616l0.102,0.716
			c0.027,0.197,0.09-0.406,0.48-0.463c0,0,0.442,1.198,0.697,1.199c0.264,0.003,0.195-0.635,0.338-0.494
			c0.78,0.762,2.383,0.578,3.333,0.637c0,0-0.796-0.669-0.606-1.066C40.22,73.579,40.929,73.716,41.001,73.635z M33.938,73.691
			c0,0.102,0.083,0.185,0.184,0.185s0.184-0.083,0.184-0.185s-0.083-0.184-0.184-0.184S33.938,73.59,33.938,73.691z M33.486,73.793
			c0.102,0,0.184-0.081,0.184-0.183c0-0.101-0.083-0.184-0.184-0.184c-0.101,0-0.184,0.083-0.184,0.184
			C33.302,73.712,33.385,73.793,33.486,73.793z M32.95,73.427c-0.102,0-0.184,0.083-0.184,0.184c0,0.102,0.083,0.183,0.184,0.183
			c0.101,0,0.183-0.081,0.183-0.183C33.133,73.51,33.051,73.427,32.95,73.427z M34.414,72.923c-0.101,0-0.184,0.084-0.184,0.184
			c0,0.102,0.083,0.185,0.184,0.185s0.184-0.083,0.184-0.185C34.598,73.007,34.515,72.923,34.414,72.923z M33.661,73.059
			c0,0.102,0.083,0.182,0.184,0.182c0.101,0,0.184-0.08,0.184-0.182s-0.083-0.185-0.184-0.185
			C33.744,72.874,33.661,72.957,33.661,73.059z M33.427,73.074c0-0.101-0.083-0.183-0.184-0.183c-0.102,0-0.183,0.082-0.183,0.183
			c0,0.102,0.082,0.184,0.183,0.184C33.344,73.258,33.427,73.176,33.427,73.074z M34.057,72.371c-0.101,0-0.185,0.082-0.185,0.183
			c0,0.102,0.083,0.184,0.185,0.184s0.184-0.082,0.184-0.184C34.241,72.453,34.158,72.371,34.057,72.371z M33.54,72.488
			c0-0.1-0.082-0.182-0.183-0.182c-0.101,0-0.184,0.082-0.184,0.182c0,0.103,0.083,0.185,0.184,0.185
			C33.458,72.673,33.54,72.591,33.54,72.488z M33.667,71.803c-0.102,0-0.184,0.08-0.184,0.182s0.083,0.185,0.184,0.185
			c0.101,0,0.184-0.083,0.184-0.185S33.768,71.803,33.667,71.803z M37.111,70.093c0,0,0.359,0.103,0.482,0
			c0.122-0.102,0.081-0.467,0.081-0.467C37.585,69.815,37.453,69.989,37.111,70.093z M32.485,73.903l-0.25-0.509
			c0,0,0.367-0.523,0.499-0.812c0.172-0.375,0.462-0.775,0.374-1.177c0,0-0.121-0.34-0.115-0.516
			c0.004-0.137,0.239-0.453,0.115-0.396c0,0-0.591,0.471-0.928,0.425c-0.159-0.021-0.221-0.47-0.457-0.325
			c0,0-0.226,0.565-0.5,0.515c-0.219-0.563-0.019-0.74,0.155-1.027c0.091,0.109,0.253,0.156,0.387,0.108
			C31.901,70.144,32,70.006,32,69.863c0-0.183-0.167-0.35-0.351-0.35c-0.131-0.016-0.293,0.203-0.448,0.367
			c0,0-0.308,0.732-0.608,0.683c-0.24-0.481-0.381-1.037-0.851-1.337c-0.15-0.097-0.494-0.087-0.729-0.166
			c-0.616-0.357-1.042-0.211-1.551-0.281l-1.177,0.068c-0.167,0.011,0.38,0.187,0.355,0.35c-0.021,0.149-0.402,0.214-0.402,0.214
			l-1.08,0.165c-0.094,0.016,0.834,0.614,0.919,1.078c0.021,0.117-0.121,0.334-0.121,0.334s0.657,0.634,1.08,0.752
			c0.213,0.059,0.661-0.046,0.661-0.046s0.123-0.166,0.212-0.166c0.219-0.001,0.688,0.471,0.882,0.37l0.791-0.355l-0.253,0.57
			c-0.114,0.058-0.19,0.182-0.19,0.311c0.017,0.169,0.176,0.313,0.348,0.313c0.171,0,0.331-0.145,0.348-0.313
			c0-0.117-0.062-0.231-0.162-0.293c0.701-0.437,1.195-0.237,1.276-0.126l0.319,0.448c0.199,0.276-0.532-0.113-0.82-0.008
			c-0.218,0.081-0.241,0.484-0.471,0.517c0,0-0.476,0.035-0.64,0.183c-0.438,0.395-0.472,1.703-0.334,1.579
			c0,0,0.214-0.264,0.365-0.327c0.239-0.102,0.651,0.175,0.776-0.053c0,0,0.197-0.33,0.349-0.425
			c0.227-0.138,0.708-0.067,0.708-0.067s0.178-0.246,0.311-0.305c0.159-0.068,0.458-0.054,0.502,0.113
			c0.204,0.771,0.726,1.315,1.094,1.32c0.303,0.014,0.762-0.361,0.762-0.361l0.592-0.299C33.776,74.333,32.681,74.304,32.485,73.903
			z M31.523,73.76c-0.15,0-0.292,0.126-0.31,0.275c0.001,0.169,0.164,0.32,0.333,0.311c0.154-0.015,0.286-0.155,0.287-0.311
			C31.815,73.886,31.674,73.76,31.523,73.76z M30.531,69.672L30.531,69.672c0,0.153,0.124,0.276,0.275,0.276
			c0.152,0,0.276-0.125,0.276-0.276c-0.001-0.151-0.125-0.274-0.276-0.275C30.655,69.396,30.531,69.521,30.531,69.672z
			 M55.044,73.635c-0.082-0.238-1.276-0.734-1.294-1.008c-0.019-0.332,0.79-0.426,0.835-0.555c-0.406-0.331-1.636-0.605-1.636-0.605
			c-0.126-0.118,0.236-0.927,0.132-1.24c-0.154-0.469-1.082-0.613-1.082-0.613c0.086,0.384,0.052,0.715-0.401,0.909
			c-0.595,0.256-0.982-0.898-1.522-1.113c-0.745-0.296-2.921-0.753-2.221-0.274v-0.001c0,0,0.561,0.133,0.52,0.291
			c-0.013,0.045-0.742,0.456-0.742,0.456c-0.324,0.199,1.264,0.077,1.614,0.222c0.439,0.18,0.772,1.133-0.189,1.233
			c-0.407-0.047-0.886-0.777-0.886-0.777l-0.253,0.666c-0.216,0.569,1.114,1.283,1.163,1.807c0.012,0.127-0.061,0.337-0.061,0.337
			c-0.086,0.199-0.43,0.536-0.242,0.646c0.084,0.05,0.248-0.257,0.319-0.352c0.071-0.093,0.152,0.009,0.214-0.068
			c0.108-0.138,0.036-0.348,0.085-0.53c0.049-0.184,0.219-0.339,0.325-0.296c0.211,0.084,0.041,0.616,0.041,0.616l0.101,0.716
			c0.028,0.197,0.09-0.406,0.48-0.463c0,0,0.442,1.198,0.697,1.199c0.264,0.003,0.195-0.635,0.338-0.494
			c0.78,0.762,2.383,0.578,3.334,0.637c0,0-0.797-0.669-0.606-1.066C54.263,73.579,54.972,73.716,55.044,73.635z M47.981,73.691
			c0,0.102,0.083,0.185,0.185,0.185s0.184-0.083,0.184-0.185s-0.082-0.184-0.184-0.184S47.981,73.59,47.981,73.691z M47.53,73.793
			c0.102,0,0.185-0.081,0.185-0.183c0-0.101-0.083-0.184-0.185-0.184c-0.101,0-0.184,0.083-0.184,0.184
			C47.347,73.712,47.43,73.793,47.53,73.793z M46.994,73.427c-0.102,0-0.185,0.083-0.185,0.184c0,0.102,0.083,0.183,0.185,0.183
			s0.184-0.081,0.184-0.183C47.178,73.51,47.096,73.427,46.994,73.427z M48.458,72.923c-0.102,0-0.183,0.084-0.183,0.184
			c0,0.102,0.081,0.185,0.183,0.185s0.185-0.083,0.185-0.185C48.643,73.007,48.56,72.923,48.458,72.923z M47.704,73.059
			c0,0.102,0.083,0.182,0.185,0.182s0.184-0.08,0.184-0.182s-0.082-0.185-0.184-0.185S47.704,72.957,47.704,73.059z M47.471,73.074
			c0-0.101-0.083-0.183-0.185-0.183s-0.184,0.082-0.184,0.183c0,0.102,0.082,0.184,0.184,0.184S47.471,73.176,47.471,73.074z
			 M48.101,72.371c-0.102,0-0.185,0.082-0.185,0.183c0,0.102,0.083,0.184,0.185,0.184s0.184-0.082,0.184-0.184
			C48.284,72.453,48.202,72.371,48.101,72.371z M47.584,72.488c0-0.1-0.082-0.182-0.184-0.182s-0.185,0.082-0.185,0.182
			c0,0.103,0.083,0.185,0.185,0.185S47.584,72.591,47.584,72.488z M47.71,71.803c-0.102,0-0.184,0.08-0.184,0.182
			s0.082,0.185,0.184,0.185s0.184-0.083,0.184-0.185S47.812,71.803,47.71,71.803z M51.154,70.093c0,0,0.359,0.103,0.483,0
			c0.12-0.102,0.08-0.467,0.08-0.467C51.63,69.815,51.497,69.989,51.154,70.093z M46.529,73.903l-0.25-0.509
			c0,0,0.368-0.523,0.5-0.812c0.17-0.375,0.462-0.775,0.373-1.177c0,0-0.12-0.34-0.115-0.516c0.005-0.137,0.24-0.453,0.115-0.396
			c0,0-0.59,0.471-0.928,0.425c-0.158-0.021-0.222-0.47-0.457-0.325c0,0-0.226,0.565-0.499,0.515
			c-0.219-0.563-0.02-0.74,0.155-1.027c0.09,0.109,0.252,0.156,0.387,0.108c0.134-0.047,0.231-0.185,0.233-0.327
			c0-0.183-0.167-0.35-0.351-0.35c-0.131-0.016-0.294,0.203-0.447,0.367c0,0-0.309,0.732-0.609,0.683
			c-0.24-0.481-0.381-1.037-0.85-1.337c-0.151-0.097-0.494-0.087-0.729-0.166c-0.616-0.357-1.044-0.211-1.552-0.281l-1.177,0.068
			c-0.167,0.011,0.38,0.187,0.356,0.35c-0.022,0.149-0.403,0.214-0.403,0.214l-1.08,0.165c-0.093,0.016,0.834,0.614,0.919,1.078
			C40.142,70.771,40,70.988,40,70.988s0.657,0.634,1.08,0.752c0.213,0.059,0.661-0.046,0.661-0.046s0.123-0.166,0.212-0.166
			c0.218-0.001,0.688,0.471,0.882,0.37l0.791-0.355l-0.254,0.57c-0.113,0.058-0.19,0.182-0.19,0.311
			c0.017,0.169,0.177,0.313,0.348,0.313c0.173,0,0.332-0.145,0.349-0.313c0-0.117-0.062-0.231-0.161-0.293
			c0.701-0.437,1.195-0.237,1.275-0.126l0.319,0.448c0.199,0.276-0.532-0.113-0.819-0.008c-0.22,0.081-0.24,0.484-0.472,0.517
			c0,0-0.477,0.035-0.64,0.183c-0.438,0.395-0.473,1.703-0.335,1.579c0,0,0.215-0.264,0.366-0.327
			c0.239-0.102,0.65,0.175,0.774-0.053c0,0,0.197-0.33,0.349-0.425c0.229-0.138,0.709-0.067,0.709-0.067s0.177-0.246,0.31-0.305
			c0.158-0.068,0.459-0.054,0.502,0.113c0.203,0.771,0.727,1.315,1.095,1.32c0.302,0.014,0.761-0.361,0.761-0.361l0.592-0.299
			C47.819,74.333,46.726,74.304,46.529,73.903z M45.567,73.76c-0.151,0-0.292,0.126-0.312,0.275c0.001,0.169,0.164,0.32,0.334,0.311
			c0.153-0.015,0.286-0.155,0.286-0.311C45.858,73.886,45.718,73.76,45.567,73.76z M44.575,69.672L44.575,69.672
			c0,0.153,0.124,0.276,0.275,0.276c0.152,0,0.274-0.125,0.274-0.276s-0.122-0.274-0.274-0.275
			C44.699,69.396,44.575,69.521,44.575,69.672z M68.795,73.635c-0.083-0.238-1.276-0.734-1.294-1.008
			c-0.019-0.332,0.79-0.426,0.833-0.555c-0.404-0.331-1.635-0.605-1.635-0.605c-0.127-0.118,0.236-0.927,0.132-1.24
			c-0.154-0.469-1.083-0.613-1.083-0.613c0.087,0.384,0.052,0.715-0.401,0.909c-0.595,0.256-0.982-0.898-1.522-1.113
			c-0.744-0.296-2.922-0.753-2.222-0.274v-0.001c0,0,0.562,0.133,0.52,0.291c-0.01,0.045-0.743,0.456-0.743,0.456
			c-0.321,0.199,1.266,0.077,1.616,0.222c0.44,0.18,0.772,1.133-0.189,1.233c-0.408-0.047-0.886-0.777-0.886-0.777l-0.252,0.666
			c-0.217,0.569,1.113,1.283,1.162,1.807c0.012,0.127-0.061,0.337-0.061,0.337c-0.085,0.199-0.431,0.536-0.243,0.646
			c0.087,0.05,0.25-0.257,0.32-0.352c0.07-0.093,0.153,0.009,0.215-0.068c0.108-0.138,0.035-0.348,0.085-0.53
			c0.048-0.184,0.218-0.339,0.325-0.296c0.211,0.084,0.041,0.616,0.041,0.616l0.1,0.716c0.027,0.197,0.091-0.406,0.48-0.463
			c0,0,0.442,1.198,0.696,1.199c0.266,0.003,0.196-0.635,0.339-0.494c0.78,0.762,2.383,0.578,3.335,0.637
			c0,0-0.797-0.669-0.607-1.066C68.014,73.579,68.721,73.716,68.795,73.635z M61.731,73.691c0,0.102,0.083,0.185,0.184,0.185
			c0.102,0,0.185-0.083,0.185-0.185s-0.083-0.184-0.185-0.184C61.814,73.508,61.731,73.59,61.731,73.691z M61.28,73.793
			c0.101,0,0.185-0.081,0.185-0.183c0-0.101-0.084-0.184-0.185-0.184c-0.102,0-0.184,0.083-0.184,0.184
			C61.097,73.712,61.179,73.793,61.28,73.793z M60.743,73.427c-0.101,0-0.184,0.083-0.184,0.184c0,0.102,0.083,0.183,0.184,0.183
			c0.102,0,0.185-0.081,0.185-0.183C60.928,73.51,60.845,73.427,60.743,73.427z M62.208,72.923c-0.101,0-0.184,0.084-0.184,0.184
			c0,0.102,0.083,0.185,0.184,0.185c0.102,0,0.184-0.083,0.184-0.185C62.392,73.007,62.31,72.923,62.208,72.923z M61.455,73.059
			c0,0.102,0.082,0.182,0.183,0.182c0.103,0,0.184-0.08,0.184-0.182s-0.081-0.185-0.184-0.185
			C61.536,72.874,61.455,72.957,61.455,73.059z M61.22,73.074c0-0.101-0.081-0.183-0.183-0.183s-0.185,0.082-0.185,0.183
			c0,0.102,0.083,0.184,0.185,0.184S61.22,73.176,61.22,73.074z M61.851,72.371c-0.102,0-0.184,0.082-0.184,0.183
			c0,0.102,0.082,0.184,0.184,0.184c0.101,0,0.185-0.082,0.185-0.184C62.035,72.453,61.951,72.371,61.851,72.371z M61.334,72.488
			c0-0.1-0.082-0.182-0.184-0.182s-0.184,0.082-0.184,0.182c0,0.103,0.082,0.185,0.184,0.185S61.334,72.591,61.334,72.488z
			 M61.458,71.803c-0.101,0-0.182,0.08-0.182,0.182s0.081,0.185,0.182,0.185c0.102,0,0.185-0.083,0.185-0.185
			S61.562,71.803,61.458,71.803z M65.387,70.093c0.121-0.102,0.08-0.467,0.08-0.467c-0.087,0.189-0.22,0.363-0.563,0.467
			C64.904,70.093,65.265,70.195,65.387,70.093z M59.316,73.76c-0.15,0-0.291,0.126-0.31,0.275c0.001,0.169,0.163,0.32,0.333,0.311
			c0.154-0.015,0.286-0.155,0.286-0.311C59.608,73.886,59.468,73.76,59.316,73.76z M60.28,73.903l-0.252-0.509
			c0,0,0.368-0.523,0.501-0.812c0.171-0.375,0.462-0.775,0.373-1.177c0,0-0.12-0.34-0.115-0.516c0.006-0.137,0.24-0.453,0.115-0.396
			c0,0-0.59,0.471-0.928,0.425c-0.158-0.021-0.222-0.47-0.456-0.325c0,0-0.227,0.565-0.501,0.515
			c-0.219-0.563-0.018-0.74,0.156-1.027c0.09,0.109,0.252,0.156,0.387,0.108c0.135-0.047,0.232-0.185,0.234-0.327
			c0-0.183-0.167-0.35-0.352-0.35c-0.131-0.016-0.294,0.203-0.449,0.367c0,0-0.307,0.732-0.606,0.683
			c-0.241-0.481-0.381-1.037-0.852-1.337c-0.15-0.097-0.492-0.087-0.729-0.166c-0.615-0.357-1.043-0.211-1.551-0.281l-1.177,0.068
			c-0.167,0.011,0.38,0.187,0.356,0.35c-0.022,0.149-0.403,0.214-0.403,0.214l-1.08,0.165c-0.093,0.016,0.834,0.614,0.919,1.078
			c0.021,0.117-0.121,0.334-0.121,0.334s0.657,0.634,1.08,0.752c0.213,0.059,0.661-0.046,0.661-0.046s0.122-0.166,0.212-0.166
			c0.219-0.001,0.688,0.471,0.882,0.37l0.791-0.355l-0.253,0.57c-0.114,0.058-0.189,0.182-0.191,0.311
			c0.019,0.169,0.177,0.313,0.349,0.313c0.171,0,0.331-0.145,0.349-0.313c0-0.117-0.064-0.231-0.162-0.293
			c0.701-0.437,1.195-0.237,1.274-0.126l0.322,0.448c0.198,0.276-0.533-0.113-0.821-0.008c-0.219,0.081-0.24,0.484-0.472,0.517
			c0,0-0.476,0.035-0.64,0.183c-0.438,0.395-0.472,1.703-0.333,1.579c0,0,0.213-0.264,0.362-0.327
			c0.239-0.102,0.652,0.175,0.776-0.053c0,0,0.198-0.33,0.35-0.425c0.229-0.138,0.707-0.067,0.707-0.067s0.179-0.246,0.312-0.305
			c0.158-0.068,0.457-0.054,0.5,0.113c0.205,0.771,0.729,1.315,1.097,1.32c0.301,0.014,0.76-0.361,0.76-0.361l0.592-0.299
			C61.568,74.333,60.476,74.304,60.28,73.903z M58.324,69.672L58.324,69.672c0,0.153,0.125,0.276,0.276,0.276
			c0.152,0,0.275-0.125,0.275-0.276s-0.123-0.274-0.275-0.275C58.447,69.396,58.324,69.521,58.324,69.672z M12.914,7.522
			c-0.408-0.047-0.884-0.777-0.884-0.777l-0.254,0.666c-0.217,0.569,1.115,1.284,1.163,1.806c0.011,0.128-0.06,0.337-0.06,0.337
			c-0.085,0.199-0.43,0.538-0.243,0.646c0.085,0.048,0.249-0.257,0.32-0.352c0.07-0.094,0.153,0.007,0.214-0.069
			c0.109-0.137,0.036-0.348,0.084-0.53c0.048-0.183,0.219-0.338,0.326-0.295c0.211,0.083,0.041,0.615,0.041,0.615l0.1,0.716
			c0.027,0.198,0.09-0.406,0.48-0.463c0,0,0.442,1.199,0.698,1.201c0.265,0.002,0.195-0.636,0.337-0.496
			c0.78,0.763,2.383,0.578,3.334,0.638c0,0-0.796-0.669-0.607-1.066c0.16-0.335,0.867-0.198,0.94-0.278
			c-0.082-0.24-1.277-0.735-1.293-1.008c-0.02-0.333,0.79-0.426,0.833-0.555c-0.404-0.332-1.635-0.606-1.635-0.606
			c-0.127-0.118,0.236-0.926,0.132-1.24c-0.154-0.469-1.083-0.613-1.083-0.613c0.087,0.383,0.052,0.714-0.401,0.909
			c-0.596,0.256-0.983-0.898-1.523-1.114c-0.746-0.295-2.923-0.751-2.223-0.272c0,0,0.559,0.133,0.52,0.29
			c-0.011,0.046-0.743,0.458-0.743,0.458c-0.323,0.198,1.264,0.077,1.615,0.22C13.543,6.468,13.876,7.421,12.914,7.522z
			 M15.496,6.278c0.121-0.102,0.081-0.466,0.081-0.466c-0.089,0.189-0.22,0.363-0.565,0.466C15.012,6.278,15.373,6.382,15.496,6.278
			z M12.024,10.061c0.101,0,0.183-0.082,0.183-0.183c0-0.102-0.082-0.183-0.183-0.183c-0.102,0-0.184,0.081-0.184,0.183
			S11.922,10.061,12.024,10.061z M11.573,9.795c0-0.1-0.083-0.183-0.185-0.183c-0.101,0-0.183,0.083-0.183,0.183
			c0,0.102,0.082,0.184,0.183,0.184C11.49,9.979,11.573,9.897,11.573,9.795z M10.668,9.795c0,0.102,0.083,0.184,0.184,0.184
			c0.101,0,0.183-0.083,0.183-0.184c0-0.1-0.082-0.183-0.183-0.183C10.751,9.612,10.668,9.695,10.668,9.795z M12.501,9.292
			c0-0.102-0.083-0.183-0.184-0.183c-0.102,0-0.184,0.082-0.184,0.183s0.082,0.183,0.184,0.183
			C12.418,9.476,12.501,9.394,12.501,9.292z M11.747,9.427c0.102,0,0.184-0.083,0.184-0.184c0-0.101-0.082-0.183-0.184-0.183
			c-0.101,0-0.183,0.082-0.183,0.183C11.563,9.345,11.646,9.427,11.747,9.427z M11.145,9.442c0.101,0,0.183-0.082,0.183-0.184
			c0-0.101-0.082-0.183-0.183-0.183c-0.102,0-0.184,0.082-0.184,0.183C10.961,9.36,11.043,9.442,11.145,9.442z M12.142,8.739
			c0-0.101-0.083-0.183-0.184-0.183c-0.101,0-0.183,0.082-0.183,0.183c0,0.101,0.082,0.184,0.183,0.184
			C12.06,8.923,12.142,8.84,12.142,8.739z M11.259,8.858c0.101,0,0.184-0.083,0.184-0.184c0-0.101-0.083-0.183-0.184-0.183
			c-0.102,0-0.184,0.082-0.184,0.183C11.075,8.775,11.157,8.858,11.259,8.858z M11.568,8.354c0.101,0,0.184-0.083,0.184-0.184
			c0-0.102-0.083-0.183-0.184-0.183c-0.102,0-0.183,0.082-0.183,0.183C11.385,8.271,11.466,8.354,11.568,8.354z M26.544,7.392
			c-0.408-0.046-0.885-0.777-0.885-0.777L25.405,7.28c-0.217,0.569,1.114,1.285,1.163,1.806c0.012,0.129-0.061,0.338-0.061,0.338
			c-0.086,0.199-0.429,0.537-0.242,0.646c0.085,0.049,0.249-0.257,0.319-0.352c0.071-0.093,0.153,0.008,0.214-0.068
			c0.109-0.138,0.036-0.349,0.084-0.532c0.049-0.182,0.219-0.337,0.326-0.294c0.212,0.083,0.041,0.615,0.041,0.615l0.101,0.716
			c0.027,0.197,0.091-0.406,0.48-0.463c0,0,0.442,1.199,0.698,1.202c0.264,0.002,0.195-0.635,0.337-0.496
			c0.781,0.763,2.383,0.578,3.334,0.638c0,0-0.795-0.669-0.607-1.066c0.16-0.335,0.867-0.198,0.939-0.277
			c-0.083-0.24-1.277-0.736-1.293-1.008c-0.02-0.333,0.79-0.426,0.833-0.556c-0.405-0.332-1.634-0.605-1.634-0.605
			c-0.126-0.118,0.235-0.927,0.131-1.241c-0.154-0.469-1.083-0.613-1.083-0.613c0.087,0.383,0.052,0.715-0.4,0.91
			c-0.596,0.256-0.983-0.898-1.524-1.114c-0.744-0.296-2.921-0.752-2.221-0.275c0,0,0.56,0.133,0.52,0.29
			c-0.012,0.046-0.744,0.458-0.744,0.458c-0.323,0.198,1.265,0.076,1.615,0.22C27.172,6.339,27.504,7.293,26.544,7.392z
			 M25.652,9.931c0.102,0,0.184-0.082,0.184-0.183c0-0.102-0.083-0.184-0.184-0.184c-0.101,0-0.183,0.083-0.183,0.184
			C25.469,9.849,25.551,9.931,25.652,9.931z M25.019,9.85c0.101,0,0.183-0.083,0.183-0.183c0-0.102-0.082-0.185-0.183-0.185
			c-0.102,0-0.184,0.083-0.184,0.185C24.834,9.768,24.917,9.85,25.019,9.85z M24.481,9.482c-0.101,0-0.184,0.083-0.184,0.185
			c0,0.101,0.083,0.183,0.184,0.183c0.102,0,0.184-0.083,0.184-0.183C24.665,9.565,24.583,9.482,24.481,9.482z M26.13,9.163
			c0-0.102-0.083-0.184-0.184-0.184c-0.101,0-0.184,0.083-0.184,0.184c0,0.101,0.083,0.183,0.184,0.183
			C26.047,9.346,26.13,9.264,26.13,9.163z M25.376,9.297c0.102,0,0.184-0.082,0.184-0.183c0-0.101-0.083-0.184-0.184-0.184
			c-0.101,0-0.184,0.083-0.184,0.184C25.192,9.216,25.275,9.297,25.376,9.297z M24.958,9.13c0-0.101-0.083-0.184-0.184-0.184
			c-0.102,0-0.185,0.083-0.185,0.184c0,0.102,0.083,0.184,0.185,0.184C24.875,9.314,24.958,9.232,24.958,9.13z M25.771,8.61
			c0-0.101-0.082-0.183-0.183-0.183c-0.102,0-0.184,0.083-0.184,0.183c0,0.101,0.083,0.184,0.184,0.184
			C25.689,8.794,25.771,8.711,25.771,8.61z M24.888,8.729c0.101,0,0.184-0.082,0.184-0.183c0-0.101-0.083-0.184-0.184-0.184
			c-0.102,0-0.183,0.083-0.183,0.184C24.705,8.647,24.786,8.729,24.888,8.729z M25.197,8.226c0.102,0,0.184-0.083,0.184-0.184
			s-0.082-0.183-0.184-0.183c-0.101,0-0.184,0.082-0.184,0.183S25.096,8.226,25.197,8.226z M29.124,6.149
			c0.122-0.102,0.082-0.466,0.082-0.466c-0.089,0.188-0.22,0.363-0.565,0.466C28.641,6.149,29.002,6.252,29.124,6.149z
			 M17.609,6.711c0.021,0.117-0.121,0.333-0.121,0.333s0.657,0.635,1.08,0.751c0.213,0.059,0.661-0.046,0.661-0.046
			s0.123-0.166,0.212-0.166c0.219,0,0.688,0.471,0.881,0.372l0.791-0.355l-0.254,0.569c-0.113,0.058-0.189,0.183-0.189,0.31
			c0.017,0.171,0.176,0.314,0.348,0.314c0.171,0,0.33-0.144,0.348-0.314c0-0.116-0.063-0.23-0.161-0.292
			c0.701-0.437,1.194-0.238,1.275-0.126l0.32,0.448c0.199,0.276-0.533-0.114-0.82-0.008c-0.219,0.081-0.24,0.483-0.471,0.516
			c0,0-0.477,0.035-0.639,0.183c-0.439,0.394-0.473,1.703-0.334,1.579c0,0,0.214-0.264,0.365-0.328
			c0.239-0.1,0.651,0.175,0.775-0.052c0,0,0.196-0.331,0.35-0.423c0.227-0.139,0.707-0.068,0.707-0.068s0.177-0.247,0.311-0.305
			c0.159-0.068,0.458-0.053,0.501,0.114c0.205,0.772,0.727,1.316,1.095,1.321c0.301,0.013,0.76-0.364,0.76-0.364l0.595-0.298
			c-0.686,0.013-1.78-0.017-1.977-0.417l-0.25-0.509c0,0,0.368-0.522,0.5-0.812c0.171-0.374,0.462-0.775,0.374-1.176
			c0,0-0.121-0.341-0.116-0.516c0.005-0.137,0.24-0.454,0.116-0.396c0,0-0.591,0.472-0.928,0.424
			c-0.159-0.021-0.222-0.469-0.456-0.326c0,0-0.227,0.565-0.501,0.515c-0.218-0.562-0.019-0.74,0.155-1.028
			c0.091,0.111,0.252,0.157,0.387,0.109c0.135-0.047,0.234-0.184,0.234-0.327c0-0.183-0.167-0.35-0.35-0.35
			c-0.132-0.015-0.293,0.204-0.448,0.367c0,0-0.309,0.733-0.609,0.682c-0.24-0.481-0.38-1.037-0.85-1.336
			c-0.151-0.096-0.493-0.087-0.729-0.167c-0.617-0.358-1.043-0.21-1.551-0.28l-1.178,0.069c-0.166,0.009,0.381,0.185,0.356,0.349
			C18.15,5.404,17.77,5.466,17.77,5.466L16.69,5.632C16.596,5.647,17.524,6.247,17.609,6.711z M23.055,9.815
			c-0.151,0-0.292,0.125-0.311,0.275c0,0.17,0.165,0.321,0.333,0.31c0.154-0.012,0.287-0.155,0.288-0.31
			C23.348,9.941,23.207,9.815,23.055,9.815z M22.339,6.003c0.152,0,0.275-0.125,0.275-0.276c0-0.151-0.124-0.275-0.275-0.276
			c-0.152,0-0.276,0.123-0.276,0.276v0.002C22.063,5.881,22.186,6.003,22.339,6.003z M40.531,7.392
			c-0.407-0.045-0.884-0.777-0.884-0.777L39.394,7.28c-0.217,0.569,1.115,1.285,1.163,1.806c0.011,0.129-0.061,0.338-0.061,0.338
			c-0.085,0.199-0.429,0.537-0.242,0.646c0.085,0.049,0.248-0.257,0.319-0.352c0.07-0.093,0.153,0.008,0.215-0.068
			c0.108-0.138,0.036-0.349,0.085-0.532c0.048-0.182,0.218-0.337,0.324-0.294c0.212,0.083,0.041,0.615,0.041,0.615l0.101,0.716
			c0.027,0.197,0.091-0.406,0.479-0.463c0,0,0.442,1.199,0.699,1.202c0.264,0.002,0.194-0.635,0.338-0.496
			c0.78,0.763,2.382,0.578,3.333,0.638c0,0-0.796-0.669-0.607-1.066c0.16-0.335,0.867-0.198,0.939-0.277
			c-0.082-0.24-1.276-0.736-1.292-1.008c-0.02-0.333,0.789-0.426,0.832-0.556c-0.405-0.332-1.634-0.605-1.634-0.605
			c-0.127-0.118,0.235-0.927,0.131-1.241c-0.154-0.469-1.082-0.613-1.082-0.613c0.087,0.383,0.052,0.715-0.4,0.91
			c-0.596,0.256-0.983-0.898-1.523-1.114c-0.744-0.296-2.922-0.752-2.221-0.275c0,0,0.559,0.133,0.52,0.29
			c-0.012,0.046-0.744,0.458-0.744,0.458c-0.323,0.198,1.265,0.076,1.614,0.22C41.161,6.339,41.493,7.293,40.531,7.392z
			 M39.641,9.931c0.102,0,0.184-0.082,0.184-0.183c0-0.102-0.083-0.184-0.184-0.184c-0.101,0-0.183,0.083-0.183,0.184
			C39.458,9.849,39.54,9.931,39.641,9.931z M39.007,9.85c0.101,0,0.183-0.083,0.183-0.183c0-0.102-0.082-0.185-0.183-0.185
			c-0.102,0-0.184,0.083-0.184,0.185C38.823,9.768,38.906,9.85,39.007,9.85z M38.471,9.482c-0.102,0-0.184,0.083-0.184,0.185
			c0,0.101,0.083,0.183,0.184,0.183c0.101,0,0.184-0.083,0.184-0.183C38.654,9.565,38.572,9.482,38.471,9.482z M40.119,9.163
			c0-0.102-0.083-0.184-0.184-0.184c-0.101,0-0.184,0.083-0.184,0.184c0,0.101,0.083,0.183,0.184,0.183
			C40.036,9.346,40.119,9.264,40.119,9.163z M39.365,9.297c0.102,0,0.184-0.082,0.184-0.183c0-0.101-0.083-0.184-0.184-0.184
			c-0.101,0-0.184,0.083-0.184,0.184C39.181,9.216,39.264,9.297,39.365,9.297z M38.947,9.13c0-0.101-0.083-0.184-0.184-0.184
			c-0.102,0-0.184,0.083-0.184,0.184c0,0.102,0.082,0.184,0.184,0.184S38.947,9.232,38.947,9.13z M39.76,8.61
			c0-0.101-0.082-0.183-0.183-0.183c-0.102,0-0.184,0.083-0.184,0.183c0,0.101,0.083,0.184,0.184,0.184
			C39.678,8.794,39.76,8.711,39.76,8.61z M38.877,8.729c0.101,0,0.184-0.082,0.184-0.183c0-0.101-0.083-0.184-0.184-0.184
			c-0.102,0-0.183,0.083-0.183,0.184C38.694,8.647,38.774,8.729,38.877,8.729z M39.186,8.226c0.101,0,0.184-0.083,0.184-0.184
			s-0.083-0.183-0.184-0.183c-0.102,0-0.184,0.082-0.184,0.183S39.084,8.226,39.186,8.226z M43.113,6.149
			c0.121-0.102,0.081-0.466,0.081-0.466c-0.089,0.188-0.221,0.363-0.565,0.466C42.629,6.149,42.99,6.252,43.113,6.149z
			 M37.354,10.091c-0.019-0.15-0.16-0.275-0.311-0.275s-0.292,0.125-0.311,0.275c0.001,0.17,0.165,0.321,0.333,0.31
			C37.221,10.389,37.353,10.246,37.354,10.091z M31.598,6.711c0.021,0.117-0.12,0.333-0.12,0.333s0.656,0.635,1.08,0.751
			c0.212,0.059,0.661-0.046,0.661-0.046s0.123-0.166,0.212-0.166c0.218,0,0.688,0.471,0.882,0.372l0.79-0.355l-0.254,0.569
			c-0.113,0.058-0.189,0.183-0.189,0.31c0.017,0.171,0.175,0.314,0.348,0.314c0.171,0,0.332-0.144,0.348-0.314
			c0-0.116-0.063-0.23-0.161-0.292c0.701-0.437,1.194-0.238,1.275-0.126l0.32,0.448c0.199,0.276-0.533-0.114-0.821-0.008
			c-0.218,0.081-0.239,0.483-0.47,0.516c0,0-0.476,0.035-0.64,0.183c-0.438,0.394-0.472,1.703-0.334,1.579
			c0,0,0.214-0.264,0.364-0.328c0.239-0.1,0.651,0.175,0.776-0.052c0,0,0.197-0.331,0.35-0.423c0.227-0.139,0.707-0.068,0.707-0.068
			s0.177-0.247,0.311-0.305c0.159-0.068,0.458-0.053,0.501,0.114c0.204,0.772,0.727,1.316,1.095,1.321
			c0.301,0.013,0.76-0.364,0.76-0.364l0.593-0.297c-0.685,0.013-1.78-0.017-1.977-0.417l-0.249-0.509c0,0,0.367-0.522,0.499-0.812
			c0.171-0.374,0.462-0.775,0.374-1.176c0,0-0.121-0.341-0.114-0.517c0.004-0.137,0.239-0.453,0.114-0.395
			c0,0-0.59,0.472-0.927,0.424c-0.159-0.021-0.222-0.469-0.457-0.326c0,0-0.227,0.565-0.5,0.515
			c-0.219-0.562-0.019-0.74,0.155-1.028c0.091,0.111,0.252,0.157,0.387,0.109c0.134-0.046,0.232-0.184,0.233-0.327
			c0-0.183-0.167-0.35-0.35-0.35c-0.132-0.015-0.293,0.203-0.449,0.367c0,0-0.308,0.733-0.608,0.682
			c-0.24-0.481-0.381-1.037-0.85-1.336c-0.15-0.096-0.494-0.087-0.729-0.167c-0.616-0.357-1.043-0.209-1.551-0.28l-1.178,0.069
			c-0.166,0.01,0.381,0.185,0.356,0.349c-0.021,0.15-0.402,0.212-0.402,0.212l-1.079,0.166C30.585,5.647,31.514,6.247,31.598,6.711z
			 M36.328,6.003c0.152,0,0.275-0.125,0.275-0.276c0-0.151-0.124-0.275-0.275-0.276c-0.152,0-0.276,0.123-0.276,0.276v0.002
			C36.052,5.881,36.175,6.003,36.328,6.003z M54.576,7.392c-0.407-0.046-0.885-0.777-0.885-0.777L53.438,7.28
			C53.221,7.85,54.552,8.565,54.6,9.086c0.012,0.129-0.061,0.338-0.061,0.338c-0.085,0.199-0.429,0.537-0.241,0.646
			c0.085,0.049,0.249-0.257,0.319-0.352c0.07-0.093,0.153,0.008,0.214-0.068c0.109-0.138,0.036-0.349,0.084-0.532
			c0.05-0.182,0.221-0.337,0.326-0.294c0.212,0.083,0.04,0.615,0.04,0.615l0.102,0.716c0.027,0.197,0.09-0.406,0.479-0.463
			c0,0,0.442,1.199,0.697,1.202c0.266,0.002,0.195-0.635,0.34-0.496c0.779,0.763,2.381,0.578,3.332,0.638
			c0,0-0.795-0.669-0.605-1.066c0.159-0.335,0.865-0.198,0.939-0.277c-0.083-0.24-1.278-0.736-1.295-1.008
			c-0.018-0.333,0.791-0.426,0.834-0.556c-0.406-0.332-1.635-0.605-1.635-0.605c-0.127-0.118,0.235-0.927,0.132-1.241
			c-0.154-0.469-1.083-0.613-1.083-0.613c0.088,0.383,0.052,0.715-0.399,0.91c-0.596,0.256-0.984-0.898-1.523-1.114
			c-0.744-0.296-2.922-0.752-2.221-0.275c0,0,0.56,0.133,0.52,0.29c-0.013,0.046-0.743,0.458-0.743,0.458
			c-0.323,0.198,1.265,0.076,1.616,0.22C55.206,6.339,55.538,7.293,54.576,7.392z M53.686,9.931c0.101,0,0.184-0.082,0.184-0.183
			c0-0.102-0.083-0.184-0.184-0.184c-0.102,0-0.184,0.083-0.184,0.184C53.502,9.849,53.584,9.931,53.686,9.931z M53.05,9.85
			c0.102,0,0.185-0.083,0.185-0.183c0-0.102-0.083-0.185-0.185-0.185c-0.101,0-0.184,0.083-0.184,0.185
			C52.866,9.768,52.949,9.85,53.05,9.85z M52.514,9.482c-0.101,0-0.184,0.083-0.184,0.185c0,0.101,0.083,0.183,0.184,0.183
			c0.102,0,0.184-0.083,0.184-0.183C52.697,9.565,52.615,9.482,52.514,9.482z M54.162,9.163c0-0.102-0.083-0.184-0.184-0.184
			c-0.102,0-0.185,0.083-0.185,0.184c0,0.101,0.083,0.183,0.185,0.183C54.079,9.346,54.162,9.264,54.162,9.163z M53.41,9.297
			c0.101,0,0.182-0.082,0.182-0.183c0-0.101-0.081-0.184-0.182-0.184c-0.102,0-0.185,0.083-0.185,0.184
			C53.226,9.216,53.307,9.297,53.41,9.297z M52.991,9.13c0-0.101-0.084-0.184-0.185-0.184c-0.102,0-0.184,0.083-0.184,0.184
			c0,0.102,0.082,0.184,0.184,0.184C52.907,9.314,52.991,9.232,52.991,9.13z M53.805,8.61c0-0.101-0.083-0.183-0.185-0.183
			c-0.101,0-0.184,0.083-0.184,0.183c0,0.101,0.083,0.184,0.184,0.184C53.722,8.794,53.805,8.711,53.805,8.61z M52.92,8.729
			c0.102,0,0.185-0.082,0.185-0.183c0-0.101-0.083-0.184-0.185-0.184c-0.101,0-0.183,0.083-0.183,0.184
			C52.737,8.647,52.819,8.729,52.92,8.729z M53.23,8.226c0.101,0,0.185-0.083,0.185-0.184s-0.084-0.183-0.185-0.183
			c-0.102,0-0.184,0.081-0.184,0.183S53.128,8.226,53.23,8.226z M57.157,6.149c0.122-0.102,0.081-0.466,0.081-0.466
			c-0.089,0.188-0.221,0.363-0.564,0.466C56.674,6.149,57.034,6.252,57.157,6.149z M51.396,10.091
			c-0.018-0.15-0.159-0.275-0.311-0.275s-0.292,0.125-0.311,0.275c0.002,0.17,0.164,0.321,0.334,0.31
			C51.265,10.389,51.396,10.246,51.396,10.091z M45.642,6.711c0.02,0.117-0.12,0.333-0.12,0.333s0.657,0.635,1.079,0.751
			c0.213,0.059,0.661-0.046,0.661-0.046s0.122-0.166,0.212-0.166c0.219,0,0.688,0.471,0.881,0.372l0.792-0.355l-0.255,0.569
			c-0.112,0.058-0.189,0.183-0.189,0.31c0.018,0.171,0.177,0.314,0.348,0.314c0.172,0,0.332-0.144,0.349-0.314
			c0-0.116-0.062-0.23-0.161-0.292c0.701-0.437,1.194-0.238,1.275-0.126l0.319,0.448c0.2,0.276-0.533-0.114-0.819-0.008
			c-0.22,0.081-0.241,0.483-0.472,0.516c0,0-0.476,0.035-0.641,0.183c-0.438,0.394-0.472,1.703-0.334,1.579
			c0,0,0.214-0.264,0.365-0.328c0.238-0.1,0.65,0.175,0.775-0.052c0,0,0.197-0.331,0.35-0.423c0.227-0.139,0.707-0.068,0.707-0.068
			s0.177-0.247,0.312-0.305c0.158-0.068,0.457-0.053,0.501,0.114c0.204,0.772,0.727,1.316,1.095,1.321
			c0.302,0.013,0.761-0.364,0.761-0.364l0.593-0.297c-0.686,0.013-1.781-0.017-1.978-0.417l-0.249-0.509c0,0,0.368-0.522,0.5-0.812
			c0.171-0.374,0.462-0.775,0.373-1.176c0,0-0.12-0.341-0.114-0.517c0.004-0.137,0.239-0.453,0.114-0.395
			c0,0-0.59,0.472-0.928,0.424c-0.159-0.021-0.222-0.469-0.456-0.326c0,0-0.226,0.565-0.5,0.515
			c-0.219-0.562-0.019-0.74,0.154-1.028c0.091,0.111,0.253,0.157,0.387,0.109c0.136-0.046,0.233-0.184,0.233-0.327
			c0-0.183-0.167-0.35-0.349-0.35c-0.132-0.015-0.295,0.203-0.449,0.367c0,0-0.308,0.733-0.609,0.682
			c-0.239-0.481-0.38-1.037-0.85-1.336c-0.149-0.096-0.493-0.087-0.729-0.167c-0.615-0.357-1.043-0.209-1.551-0.28l-1.178,0.069
			c-0.165,0.01,0.38,0.185,0.355,0.349c-0.021,0.15-0.401,0.212-0.401,0.212l-1.078,0.166C44.628,5.647,45.558,6.247,45.642,6.711z
			 M50.371,6.003c0.151,0,0.275-0.125,0.274-0.276c0-0.151-0.123-0.275-0.274-0.276c-0.153,0-0.276,0.123-0.276,0.276v0.002
			C50.095,5.881,50.22,6.003,50.371,6.003z M68.325,7.392c-0.408-0.046-0.885-0.777-0.885-0.777L67.186,7.28
			c-0.215,0.569,1.115,1.285,1.163,1.806c0.013,0.129-0.06,0.338-0.06,0.338c-0.086,0.199-0.43,0.537-0.242,0.646
			c0.085,0.049,0.249-0.257,0.319-0.352c0.07-0.093,0.153,0.008,0.214-0.068c0.109-0.138,0.036-0.349,0.086-0.532
			c0.048-0.182,0.218-0.337,0.325-0.294c0.211,0.083,0.04,0.615,0.04,0.615l0.101,0.716c0.027,0.197,0.091-0.406,0.48-0.463
			c0,0,0.441,1.199,0.697,1.202c0.265,0.002,0.195-0.635,0.338-0.496c0.78,0.763,2.383,0.578,3.335,0.638
			c0,0-0.797-0.669-0.607-1.066c0.16-0.335,0.866-0.198,0.939-0.277c-0.083-0.24-1.277-0.736-1.294-1.008
			c-0.02-0.333,0.789-0.426,0.834-0.556c-0.405-0.332-1.635-0.605-1.635-0.605c-0.127-0.118,0.235-0.927,0.131-1.241
			c-0.154-0.469-1.083-0.613-1.083-0.613c0.087,0.383,0.053,0.715-0.399,0.91c-0.596,0.256-0.983-0.898-1.522-1.114
			c-0.745-0.296-2.923-0.752-2.222-0.275c0,0,0.56,0.133,0.52,0.29C67.632,5.526,66.9,5.938,66.9,5.938
			c-0.322,0.198,1.265,0.076,1.615,0.22C68.955,6.339,69.288,7.293,68.325,7.392z M67.436,9.931c0.102,0,0.184-0.082,0.184-0.183
			c0-0.102-0.082-0.184-0.184-0.184s-0.185,0.083-0.185,0.184C67.251,9.849,67.334,9.931,67.436,9.931z M66.801,9.85
			c0.102,0,0.184-0.083,0.184-0.183c0-0.102-0.082-0.185-0.184-0.185s-0.185,0.083-0.185,0.185
			C66.616,9.768,66.699,9.85,66.801,9.85z M66.264,9.482c-0.102,0-0.184,0.083-0.184,0.185c0,0.101,0.082,0.183,0.184,0.183
			s0.183-0.083,0.183-0.183C66.446,9.565,66.365,9.482,66.264,9.482z M67.912,9.163c0-0.102-0.083-0.184-0.185-0.184
			c-0.101,0-0.184,0.083-0.184,0.184c0,0.101,0.083,0.183,0.184,0.183C67.829,9.346,67.912,9.264,67.912,9.163z M67.158,9.297
			c0.102,0,0.185-0.082,0.185-0.183c0-0.101-0.083-0.184-0.185-0.184s-0.184,0.083-0.184,0.184
			C66.975,9.216,67.057,9.297,67.158,9.297z M66.74,9.13c0-0.101-0.082-0.184-0.184-0.184s-0.185,0.083-0.185,0.184
			c0,0.102,0.083,0.184,0.185,0.184S66.74,9.232,66.74,9.13z M67.555,8.61c0-0.101-0.083-0.183-0.185-0.183
			s-0.185,0.083-0.185,0.183c0,0.101,0.083,0.184,0.185,0.184S67.555,8.711,67.555,8.61z M66.67,8.729
			c0.102,0,0.184-0.082,0.184-0.183c0-0.101-0.082-0.184-0.184-0.184c-0.101,0-0.185,0.083-0.185,0.184
			C66.485,8.647,66.569,8.729,66.67,8.729z M66.979,8.226c0.102,0,0.185-0.083,0.185-0.184s-0.083-0.183-0.185-0.183
			s-0.184,0.082-0.184,0.183S66.878,8.226,66.979,8.226z M70.907,6.149c0.121-0.102,0.081-0.466,0.081-0.466
			c-0.09,0.188-0.22,0.363-0.565,0.466C70.423,6.149,70.783,6.252,70.907,6.149z M64.836,9.815c-0.151,0-0.293,0.125-0.31,0.275
			c0.001,0.17,0.163,0.321,0.333,0.31c0.153-0.012,0.286-0.155,0.287-0.31C65.128,9.941,64.988,9.815,64.836,9.815z M59.392,6.711
			c0.021,0.117-0.121,0.333-0.121,0.333s0.657,0.635,1.08,0.751c0.212,0.059,0.66-0.046,0.66-0.046s0.124-0.166,0.213-0.166
			c0.219,0,0.688,0.471,0.882,0.372l0.791-0.355l-0.254,0.569c-0.113,0.058-0.189,0.183-0.189,0.31
			c0.016,0.171,0.175,0.314,0.348,0.314c0.172,0,0.331-0.144,0.348-0.314c0-0.116-0.062-0.23-0.16-0.292
			c0.7-0.437,1.194-0.238,1.274-0.126l0.321,0.448c0.197,0.276-0.533-0.114-0.822-0.008c-0.218,0.081-0.239,0.483-0.471,0.516
			c0,0-0.476,0.035-0.64,0.183c-0.438,0.394-0.472,1.703-0.334,1.579c0,0,0.214-0.264,0.364-0.328c0.239-0.1,0.65,0.175,0.776-0.052
			c0,0,0.197-0.331,0.349-0.423c0.228-0.139,0.707-0.068,0.707-0.068s0.178-0.247,0.312-0.305c0.158-0.068,0.458-0.053,0.501,0.114
			c0.205,0.772,0.727,1.316,1.095,1.321c0.302,0.013,0.76-0.364,0.76-0.364l0.594-0.297c-0.686,0.013-1.78-0.017-1.977-0.417
			l-0.25-0.509c0,0,0.367-0.522,0.499-0.812c0.172-0.374,0.463-0.775,0.374-1.176c0,0-0.121-0.341-0.114-0.517
			c0.005-0.137,0.239-0.453,0.114-0.395c0,0-0.59,0.472-0.928,0.424c-0.158-0.021-0.221-0.469-0.456-0.326
			c0,0-0.227,0.565-0.501,0.515c-0.218-0.562-0.018-0.74,0.155-1.028c0.091,0.111,0.253,0.157,0.387,0.109
			c0.136-0.046,0.234-0.184,0.234-0.327c0-0.183-0.166-0.35-0.351-0.35c-0.131-0.015-0.293,0.203-0.448,0.367
			c0,0-0.308,0.733-0.608,0.682c-0.239-0.481-0.381-1.037-0.851-1.336c-0.15-0.096-0.493-0.087-0.729-0.167
			c-0.615-0.357-1.042-0.209-1.551-0.28l-1.178,0.069c-0.165,0.01,0.38,0.185,0.356,0.349c-0.021,0.15-0.402,0.212-0.402,0.212
			l-1.077,0.166C58.379,5.647,59.307,6.247,59.392,6.711z M64.121,6.003c0.152,0,0.276-0.125,0.276-0.276
			c-0.002-0.151-0.124-0.275-0.276-0.276c-0.152,0-0.276,0.123-0.276,0.276v0.002C63.845,5.881,63.969,6.003,64.121,6.003z
			 M74.464,70.302c0.775-0.779,0.587-2.379,0.646-3.329c0,0-0.679,0.795-1.082,0.605c-0.341-0.159-0.201-0.865-0.282-0.938
			c-0.242,0.083-0.746,1.276-1.021,1.292c-0.339,0.021-0.433-0.788-0.563-0.832c-0.338,0.404-0.615,1.634-0.615,1.634
			c-0.119,0.127-0.938-0.236-1.258-0.131c-0.476,0.154-0.623,1.082-0.623,1.082c0.389-0.088,0.725-0.052,0.923,0.399
			c0.261,0.595-0.91,0.982-1.129,1.522c-0.301,0.743-0.764,2.918-0.278,2.219c0,0,0.136-0.559,0.295-0.52
			c0.047,0.014,0.463,0.743,0.463,0.743c0.202,0.322,0.079-1.263,0.224-1.613c0.183-0.438,1.15-0.771,1.252,0.189
			c-0.047,0.407-0.789,0.884-0.789,0.884l0.677,0.253c0.576,0.217,1.302-1.113,1.832-1.161c0.128-0.012,0.343,0.061,0.343,0.061
			c0.201,0.086,0.545,0.428,0.655,0.242c0.05-0.085-0.262-0.249-0.357-0.319c-0.094-0.07,0.008-0.153-0.069-0.214
			c-0.14-0.109-0.353-0.036-0.538-0.084c-0.185-0.05-0.343-0.219-0.3-0.326c0.086-0.211,0.625-0.041,0.625-0.041l0.728-0.101
			c0.197-0.026-0.413-0.09-0.472-0.479c0,0,1.217-0.442,1.22-0.697C74.968,70.376,74.322,70.444,74.464,70.302z M70.152,70.525
			c0,0,0.106-0.358,0-0.481c-0.102-0.122-0.474-0.081-0.474-0.081C69.871,70.052,70.047,70.184,70.152,70.525z M73.804,73.328
			c-0.103,0-0.186,0.083-0.186,0.184c0,0.102,0.083,0.184,0.186,0.184c0.104,0,0.187-0.082,0.187-0.184
			C73.99,73.411,73.907,73.328,73.804,73.328z M73.721,73.962c-0.102,0-0.186,0.082-0.186,0.184s0.084,0.185,0.186,0.185
			c0.104,0,0.188-0.083,0.188-0.185S73.824,73.962,73.721,73.962z M73.721,74.498c-0.102,0-0.186,0.083-0.186,0.185
			c0,0.1,0.084,0.183,0.186,0.183c0.104,0,0.188-0.083,0.188-0.183C73.908,74.581,73.824,74.498,73.721,74.498z M73.211,73.036
			c-0.103,0-0.188,0.082-0.188,0.183c0,0.102,0.085,0.185,0.188,0.185c0.102,0,0.187-0.083,0.187-0.185
			C73.397,73.118,73.312,73.036,73.211,73.036z M73.161,73.972c0.104,0,0.187-0.082,0.187-0.184s-0.083-0.185-0.187-0.185
			c-0.103,0-0.186,0.083-0.186,0.185S73.059,73.972,73.161,73.972z M73.178,74.206c-0.104,0-0.187,0.082-0.187,0.183
			c0,0.102,0.083,0.185,0.187,0.185c0.103,0,0.186-0.083,0.186-0.185C73.363,74.288,73.28,74.206,73.178,74.206z M72.648,73.393
			c-0.102,0-0.186,0.083-0.186,0.185c0,0.101,0.084,0.183,0.186,0.183c0.104,0,0.188-0.082,0.188-0.183
			C72.836,73.476,72.754,73.393,72.648,73.393z M72.583,74.093c-0.103,0-0.186,0.081-0.186,0.183c0,0.101,0.083,0.185,0.186,0.185
			c0.104,0,0.187-0.084,0.187-0.185C72.77,74.174,72.687,74.093,72.583,74.093z M72.073,73.782c-0.104,0-0.187,0.083-0.187,0.185
			s0.083,0.183,0.187,0.183c0.103,0,0.186-0.081,0.186-0.183S72.176,73.782,72.073,73.782z M74.98,53.358
			c0,0-0.68,0.795-1.083,0.605c-0.341-0.159-0.201-0.865-0.282-0.938c-0.243,0.081-0.746,1.274-1.021,1.292
			c-0.338,0.019-0.433-0.79-0.564-0.833c-0.336,0.404-0.613,1.634-0.613,1.634c-0.12,0.127-0.938-0.236-1.259-0.132
			c-0.475,0.155-0.623,1.082-0.623,1.082c0.39-0.087,0.725-0.051,0.924,0.4c0.261,0.595-0.91,0.981-1.13,1.521
			c-0.3,0.743-0.764,2.918-0.277,2.22H69.05c0,0,0.136-0.559,0.294-0.52c0.048,0.012,0.465,0.743,0.465,0.743
			c0.201,0.322,0.077-1.265,0.224-1.613c0.183-0.44,1.15-0.772,1.252,0.188c-0.048,0.407-0.789,0.884-0.789,0.884l0.676,0.254
			c0.576,0.216,1.303-1.113,1.831-1.161c0.13-0.013,0.344,0.06,0.344,0.06c0.202,0.087,0.545,0.429,0.655,0.243
			c0.05-0.086-0.262-0.249-0.356-0.32c-0.095-0.07,0.008-0.153-0.07-0.213c-0.14-0.109-0.353-0.036-0.537-0.086
			c-0.186-0.049-0.344-0.218-0.3-0.325c0.085-0.211,0.625-0.04,0.625-0.04l0.725-0.101c0.2-0.026-0.411-0.091-0.47-0.479
			c0,0,1.218-0.441,1.219-0.696c0.003-0.265-0.644-0.194-0.501-0.337C75.107,55.91,74.92,54.309,74.98,53.358z M73.86,59.897
			c0-0.101-0.085-0.184-0.187-0.184c-0.103,0-0.188,0.083-0.188,0.184c0,0.102,0.085,0.184,0.188,0.184
			C73.775,60.081,73.86,59.999,73.86,59.897z M73.591,60.349c-0.103,0-0.186,0.083-0.186,0.185c0,0.1,0.083,0.182,0.186,0.182
			c0.104,0,0.187-0.082,0.187-0.182C73.777,60.43,73.694,60.349,73.591,60.349z M73.591,60.885c-0.103,0-0.186,0.082-0.186,0.184
			s0.083,0.184,0.186,0.184c0.104,0,0.187-0.082,0.187-0.184S73.694,60.885,73.591,60.885z M73.08,59.422
			c-0.103,0-0.188,0.082-0.188,0.183c0,0.102,0.085,0.185,0.188,0.185s0.187-0.083,0.187-0.185
			C73.267,59.504,73.183,59.422,73.08,59.422z M73.217,60.173c0-0.101-0.085-0.182-0.188-0.182c-0.102,0-0.186,0.081-0.186,0.182
			c0,0.102,0.084,0.185,0.186,0.185C73.132,60.357,73.217,60.276,73.217,60.173z M73.048,60.96c0.102,0,0.186-0.083,0.186-0.185
			s-0.084-0.184-0.186-0.184c-0.104,0-0.188,0.082-0.188,0.184S72.943,60.96,73.048,60.96z M72.705,59.963
			c0-0.102-0.083-0.184-0.187-0.184c-0.103,0-0.186,0.082-0.186,0.184c0,0.101,0.083,0.184,0.186,0.184
			C72.622,60.146,72.705,60.063,72.705,59.963z M72.267,60.662c0,0.102,0.084,0.183,0.186,0.183c0.104,0,0.188-0.081,0.188-0.183
			s-0.084-0.185-0.188-0.185C72.351,60.478,72.267,60.561,72.267,60.662z M71.756,60.353c0,0.102,0.084,0.184,0.186,0.184
			c0.104,0,0.188-0.082,0.188-0.184c0-0.101-0.084-0.185-0.188-0.185C71.84,60.168,71.756,60.252,71.756,60.353z M70.021,56.913
			c0,0,0.105-0.36,0-0.483c-0.104-0.121-0.474-0.081-0.474-0.081C69.739,56.438,69.916,56.568,70.021,56.913z M69.114,67.37
			c0.152,0.022,0.216,0.401,0.216,0.401l0.168,1.079c0.015,0.094,0.623-0.833,1.095-0.918c0.117-0.021,0.337,0.121,0.337,0.121
			s0.644-0.656,0.763-1.079c0.059-0.212-0.048-0.66-0.048-0.66s-0.168-0.123-0.168-0.212c0-0.219,0.479-0.687,0.377-0.88
			l-0.361-0.791l0.578,0.255c0.059,0.111,0.187,0.188,0.315,0.188c0.172-0.017,0.318-0.176,0.318-0.347
			c0-0.173-0.146-0.331-0.318-0.349c-0.119,0.001-0.234,0.062-0.298,0.161c-0.442-0.701-0.239-1.192-0.127-1.273l0.455-0.32
			c0.281-0.198-0.115,0.532-0.008,0.82c0.081,0.218,0.491,0.239,0.523,0.47c0,0,0.036,0.477,0.185,0.639
			c0.401,0.438,1.729,0.474,1.604,0.334c0,0-0.27-0.214-0.333-0.363c-0.102-0.239,0.177-0.65-0.054-0.775
			c0,0-0.336-0.196-0.43-0.349c-0.141-0.227-0.069-0.706-0.069-0.706s-0.25-0.178-0.31-0.311c-0.068-0.159-0.054-0.459,0.115-0.502
			c0.784-0.203,1.336-0.726,1.341-1.093c0.014-0.301-0.369-0.76-0.369-0.76l-0.303-0.593c0.014,0.686-0.017,1.779-0.422,1.976
			l-0.517,0.249c0,0-0.53-0.368-0.824-0.499c-0.379-0.172-0.785-0.462-1.192-0.373c0,0-0.346,0.121-0.524,0.114
			c-0.14-0.004-0.458-0.238-0.401-0.114c0,0,0.479,0.591,0.432,0.927c-0.022,0.159-0.476,0.221-0.33,0.455
			c0,0,0.572,0.228,0.521,0.5c-0.57,0.219-0.751,0.018-1.043-0.155c0.113-0.09,0.16-0.252,0.111-0.386
			c-0.048-0.135-0.188-0.232-0.332-0.233c-0.186,0-0.354,0.166-0.354,0.351c-0.015,0.13,0.205,0.292,0.372,0.447
			c0,0,0.745,0.308,0.692,0.607c-0.487,0.238-1.05,0.38-1.355,0.85c-0.098,0.149-0.089,0.493-0.168,0.728
			c-0.363,0.616-0.215,1.043-0.285,1.55l0.068,1.178C68.769,67.892,68.946,67.346,69.114,67.37z M73.743,62.492
			c0,0.151,0.125,0.293,0.277,0.312c0.172-0.002,0.326-0.164,0.314-0.334c-0.013-0.153-0.158-0.285-0.314-0.285
			C73.868,62.201,73.743,62.341,73.743,62.492z M69.595,63.484L69.595,63.484c0.155,0,0.279-0.125,0.279-0.276
			s-0.126-0.275-0.279-0.274c-0.154,0-0.278,0.123-0.278,0.274C69.314,63.359,69.439,63.484,69.595,63.484z M69.051,46.236
			L69.051,46.236c-0.001,0,0.135-0.561,0.293-0.519c0.048,0.011,0.465,0.741,0.465,0.741c0.201,0.323,0.077-1.263,0.224-1.613
			c0.183-0.439,1.15-0.771,1.252,0.19c-0.048,0.407-0.789,0.883-0.789,0.883l0.676,0.255c0.576,0.215,1.303-1.114,1.831-1.162
			c0.13-0.012,0.344,0.061,0.344,0.061c0.202,0.084,0.545,0.429,0.655,0.241c0.05-0.085-0.262-0.248-0.356-0.318
			c-0.095-0.071,0.008-0.153-0.07-0.216c-0.14-0.108-0.353-0.034-0.537-0.083c-0.186-0.049-0.344-0.219-0.3-0.325
			c0.085-0.211,0.625-0.041,0.625-0.041l0.725-0.101c0.2-0.028-0.411-0.09-0.47-0.479c0,0,1.218-0.443,1.219-0.697
			c0.003-0.265-0.644-0.195-0.501-0.338c0.774-0.779,0.587-2.38,0.646-3.331c0,0-0.679,0.795-1.083,0.606
			c-0.339-0.159-0.2-0.865-0.281-0.938c-0.243,0.082-0.745,1.275-1.021,1.292c-0.338,0.019-0.433-0.79-0.563-0.833
			c-0.338,0.404-0.614,1.632-0.614,1.632c-0.119,0.128-0.939-0.235-1.26-0.13c-0.475,0.153-0.621,1.082-0.621,1.082
			c0.389-0.088,0.725-0.053,0.922,0.398c0.261,0.596-0.91,0.982-1.129,1.523C69.028,44.761,68.564,46.937,69.051,46.236z
			 M73.86,45.924c0-0.102-0.085-0.184-0.187-0.184c-0.103,0-0.188,0.082-0.188,0.184s0.085,0.185,0.188,0.185
			C73.775,46.108,73.86,46.027,73.86,45.924z M73.591,46.375c-0.103,0-0.186,0.082-0.186,0.184s0.083,0.183,0.186,0.183
			c0.104,0,0.187-0.081,0.187-0.183S73.694,46.375,73.591,46.375z M73.591,46.911c-0.103,0-0.186,0.083-0.186,0.185
			c0,0.101,0.083,0.184,0.186,0.184c0.104,0,0.187-0.083,0.187-0.184C73.777,46.994,73.694,46.911,73.591,46.911z M73.08,45.447
			c-0.103,0-0.188,0.083-0.188,0.184c0,0.102,0.085,0.185,0.188,0.185s0.187-0.083,0.187-0.185
			C73.267,45.53,73.183,45.447,73.08,45.447z M73.217,46.201c0-0.102-0.085-0.185-0.188-0.185c-0.102,0-0.186,0.083-0.186,0.185
			s0.084,0.183,0.186,0.183C73.132,46.384,73.217,46.303,73.217,46.201z M73.048,46.985c0.102,0,0.186-0.082,0.186-0.183
			c0-0.102-0.084-0.184-0.186-0.184c-0.104,0-0.188,0.082-0.188,0.184C72.86,46.903,72.943,46.985,73.048,46.985z M72.705,45.989
			c0-0.1-0.083-0.183-0.187-0.183c-0.103,0-0.186,0.083-0.186,0.183c0,0.102,0.083,0.185,0.186,0.185
			C72.622,46.174,72.705,46.091,72.705,45.989z M72.267,46.689c0,0.101,0.084,0.183,0.186,0.183c0.104,0,0.188-0.082,0.188-0.183
			c0-0.102-0.084-0.184-0.188-0.184C72.351,46.506,72.267,46.586,72.267,46.689z M71.756,46.38c0,0.102,0.084,0.184,0.186,0.184
			c0.104,0,0.188-0.082,0.188-0.184s-0.084-0.185-0.188-0.185C71.84,46.195,71.756,46.278,71.756,46.38z M70.021,42.939
			c0,0,0.105-0.358,0-0.483c-0.104-0.121-0.474-0.08-0.474-0.08C69.739,42.466,69.916,42.597,70.021,42.939z M73.743,48.521
			c0,0.151,0.125,0.291,0.277,0.31c0.172,0,0.326-0.164,0.314-0.332c-0.013-0.155-0.158-0.287-0.314-0.288
			C73.868,48.228,73.743,48.369,73.743,48.521z M74.612,46.177l-0.302-0.592c0.013,0.685-0.017,1.777-0.421,1.975l-0.518,0.249
			c0,0-0.53-0.367-0.824-0.5c-0.379-0.17-0.785-0.461-1.193-0.372c0,0-0.345,0.121-0.523,0.114c-0.14-0.004-0.459-0.239-0.401-0.114
			c0,0,0.479,0.589,0.432,0.927c-0.022,0.158-0.476,0.222-0.331,0.455c0,0,0.573,0.227,0.522,0.499
			c-0.57,0.219-0.751,0.02-1.043-0.154c0.113-0.09,0.159-0.251,0.111-0.386s-0.188-0.232-0.332-0.233
			c-0.186,0-0.355,0.166-0.355,0.349c-0.015,0.133,0.206,0.295,0.373,0.448c0,0,0.745,0.308,0.692,0.608
			c-0.488,0.24-1.051,0.38-1.355,0.849c-0.098,0.151-0.089,0.493-0.168,0.729c-0.363,0.615-0.215,1.041-0.286,1.548l0.069,1.177
			c0.011,0.167,0.189-0.38,0.355-0.355c0.152,0.021,0.216,0.402,0.216,0.402l0.168,1.078c0.015,0.095,0.623-0.832,1.095-0.917
			c0.117-0.021,0.337,0.121,0.337,0.121s0.644-0.656,0.763-1.079c0.059-0.213-0.048-0.66-0.048-0.66s-0.168-0.123-0.168-0.212
			c0-0.219,0.479-0.688,0.377-0.881l-0.361-0.79l0.578,0.254c0.059,0.112,0.187,0.189,0.315,0.189
			c0.172-0.017,0.318-0.175,0.318-0.349c0-0.17-0.146-0.33-0.318-0.347c-0.119,0-0.234,0.062-0.298,0.161
			c-0.442-0.7-0.239-1.193-0.127-1.274l0.455-0.32c0.281-0.198-0.115,0.533-0.008,0.82c0.081,0.219,0.491,0.24,0.523,0.472
			c0,0,0.036,0.475,0.185,0.638c0.401,0.438,1.729,0.472,1.604,0.335c0,0-0.27-0.214-0.333-0.364
			c-0.102-0.238,0.177-0.65-0.054-0.775c0,0-0.336-0.196-0.43-0.348c-0.141-0.229-0.069-0.708-0.069-0.708s-0.25-0.178-0.31-0.311
			c-0.068-0.158-0.054-0.457,0.115-0.501c0.784-0.203,1.336-0.726,1.341-1.093C74.995,46.636,74.612,46.177,74.612,46.177z
			 M69.595,49.511L69.595,49.511c0.155,0,0.279-0.123,0.279-0.274c0-0.152-0.126-0.276-0.279-0.276
			c-0.154,0.001-0.278,0.124-0.278,0.276C69.314,49.388,69.439,49.511,69.595,49.511z M69.051,32.208L69.051,32.208
			c-0.001,0,0.135-0.56,0.293-0.52c0.048,0.013,0.465,0.742,0.465,0.742c0.201,0.323,0.077-1.263,0.224-1.613
			c0.183-0.439,1.15-0.771,1.252,0.189c-0.048,0.407-0.789,0.884-0.789,0.884l0.676,0.253c0.576,0.217,1.303-1.114,1.831-1.161
			c0.13-0.013,0.344,0.06,0.344,0.06c0.202,0.085,0.545,0.429,0.655,0.242c0.05-0.085-0.262-0.248-0.356-0.319
			c-0.095-0.071,0.008-0.152-0.07-0.213c-0.14-0.109-0.353-0.036-0.537-0.085c-0.186-0.048-0.344-0.218-0.3-0.325
			c0.085-0.21,0.625-0.041,0.625-0.041l0.725-0.101c0.2-0.027-0.411-0.09-0.47-0.479c0,0,1.218-0.442,1.219-0.697
			c0.003-0.264-0.644-0.195-0.501-0.337c0.774-0.78,0.587-2.38,0.646-3.33c0,0-0.679,0.795-1.083,0.606
			c-0.339-0.159-0.2-0.865-0.281-0.938c-0.243,0.083-0.745,1.276-1.021,1.292c-0.338,0.02-0.433-0.789-0.563-0.833
			c-0.338,0.405-0.614,1.633-0.614,1.633c-0.119,0.126-0.939-0.235-1.26-0.132c-0.475,0.155-0.621,1.083-0.621,1.083
			c0.389-0.087,0.725-0.052,0.922,0.4c0.261,0.594-0.91,0.982-1.129,1.522C69.028,30.732,68.564,32.908,69.051,32.208z
			 M73.86,31.897c0-0.102-0.085-0.184-0.187-0.184c-0.103,0-0.188,0.083-0.188,0.184c0,0.101,0.085,0.183,0.188,0.183
			C73.775,32.08,73.86,31.998,73.86,31.897z M73.591,32.347c-0.103,0-0.186,0.082-0.186,0.183c0,0.102,0.083,0.184,0.186,0.184
			c0.104,0,0.187-0.083,0.187-0.184C73.777,32.429,73.694,32.347,73.591,32.347z M73.591,32.883c-0.103,0-0.186,0.083-0.186,0.183
			c0,0.102,0.083,0.184,0.186,0.184c0.104,0,0.187-0.083,0.187-0.184C73.777,32.966,73.694,32.883,73.591,32.883z M73.08,31.421
			c-0.103,0-0.188,0.082-0.188,0.184c0,0.101,0.085,0.183,0.188,0.183s0.187-0.082,0.187-0.183
			C73.267,31.503,73.183,31.421,73.08,31.421z M73.217,32.172c0-0.102-0.085-0.183-0.188-0.183c-0.102,0-0.186,0.082-0.186,0.183
			c0,0.101,0.084,0.184,0.186,0.184C73.132,32.356,73.217,32.273,73.217,32.172z M73.048,32.958c0.102,0,0.186-0.083,0.186-0.184
			c0-0.102-0.084-0.184-0.186-0.184c-0.104,0-0.188,0.082-0.188,0.184C72.86,32.875,72.943,32.958,73.048,32.958z M72.705,31.961
			c0-0.1-0.083-0.183-0.187-0.183c-0.103,0-0.186,0.083-0.186,0.183c0,0.102,0.083,0.184,0.186,0.184
			C72.622,32.145,72.705,32.062,72.705,31.961z M72.267,32.66c0,0.101,0.084,0.184,0.186,0.184c0.104,0,0.188-0.083,0.188-0.184
			c0-0.101-0.084-0.184-0.188-0.184C72.351,32.476,72.267,32.559,72.267,32.66z M71.756,32.35c0,0.103,0.084,0.184,0.186,0.184
			c0.104,0,0.188-0.082,0.188-0.184c0-0.1-0.084-0.183-0.188-0.183C71.84,32.167,71.756,32.25,71.756,32.35z M70.021,28.91
			c0,0,0.105-0.359,0-0.481c-0.104-0.122-0.474-0.082-0.474-0.082C69.739,28.436,69.916,28.567,70.021,28.91z M73.743,34.492
			c0,0.151,0.125,0.292,0.277,0.31c0.172,0,0.326-0.164,0.314-0.333c-0.013-0.154-0.158-0.286-0.314-0.286
			C73.868,34.199,73.743,34.34,73.743,34.492z M74.612,32.148l-0.302-0.592c0.013,0.684-0.017,1.778-0.421,1.974l-0.518,0.249
			c0,0-0.53-0.367-0.824-0.499c-0.379-0.17-0.785-0.462-1.193-0.373c0,0-0.345,0.12-0.523,0.114
			c-0.14-0.004-0.459-0.239-0.401-0.114c0,0,0.479,0.59,0.432,0.926c-0.022,0.159-0.476,0.221-0.331,0.457
			c0,0,0.573,0.225,0.522,0.5c-0.57,0.218-0.751,0.018-1.043-0.155c0.113-0.09,0.159-0.252,0.111-0.386
			c-0.048-0.135-0.188-0.233-0.332-0.234c-0.186,0-0.355,0.167-0.355,0.35c-0.015,0.131,0.206,0.293,0.373,0.448
			c0,0,0.745,0.308,0.692,0.608c-0.488,0.241-1.051,0.38-1.355,0.85c-0.098,0.15-0.089,0.492-0.168,0.728
			c-0.363,0.616-0.215,1.042-0.286,1.55l0.069,1.176c0.011,0.166,0.189-0.38,0.355-0.356c0.152,0.022,0.216,0.402,0.216,0.402
			l0.168,1.079c0.015,0.094,0.623-0.833,1.095-0.918c0.117-0.021,0.337,0.121,0.337,0.121s0.644-0.657,0.763-1.08
			c0.059-0.212-0.048-0.66-0.048-0.66s-0.168-0.122-0.168-0.212c0-0.218,0.479-0.687,0.377-0.88l-0.361-0.791l0.578,0.253
			c0.059,0.113,0.187,0.19,0.315,0.19c0.172-0.017,0.318-0.177,0.318-0.348c0-0.172-0.146-0.331-0.318-0.348
			c-0.119,0.001-0.234,0.063-0.298,0.162c-0.442-0.701-0.239-1.193-0.127-1.275l0.455-0.318c0.281-0.199-0.115,0.532-0.008,0.819
			c0.081,0.218,0.491,0.24,0.523,0.47c0,0,0.036,0.476,0.185,0.64c0.401,0.437,1.729,0.471,1.604,0.333c0,0-0.27-0.214-0.333-0.365
			c-0.102-0.239,0.177-0.65-0.054-0.774c0,0-0.336-0.197-0.43-0.349c-0.141-0.227-0.069-0.707-0.069-0.707s-0.25-0.177-0.31-0.31
			c-0.068-0.158-0.054-0.458,0.115-0.501c0.784-0.204,1.336-0.726,1.341-1.094C74.995,32.606,74.612,32.148,74.612,32.148z
			 M69.595,35.483L69.595,35.483c0.155,0,0.279-0.125,0.279-0.276s-0.126-0.275-0.279-0.275s-0.278,0.125-0.278,0.275
			C69.314,35.358,69.439,35.483,69.595,35.483z M73.897,12.229c-0.341-0.16-0.201-0.865-0.282-0.938
			c-0.243,0.081-0.746,1.274-1.021,1.29c-0.338,0.021-0.433-0.789-0.564-0.831c-0.336,0.404-0.613,1.633-0.613,1.633
			c-0.12,0.127-0.938-0.235-1.259-0.131c-0.475,0.154-0.623,1.083-0.623,1.083c0.39-0.087,0.725-0.052,0.924,0.399
			c0.261,0.595-0.91,0.982-1.13,1.523c-0.3,0.743-0.764,2.918-0.277,2.218H69.05c0,0,0.136-0.559,0.294-0.519
			c0.048,0.012,0.465,0.742,0.465,0.742c0.201,0.323,0.077-1.262,0.224-1.613c0.183-0.439,1.15-0.771,1.252,0.189
			c-0.048,0.407-0.789,0.883-0.789,0.883l0.676,0.253c0.576,0.217,1.303-1.113,1.831-1.161c0.13-0.012,0.344,0.061,0.344,0.061
			c0.202,0.085,0.545,0.429,0.655,0.241c0.05-0.084-0.262-0.249-0.356-0.319s0.008-0.153-0.07-0.213
			c-0.14-0.109-0.353-0.036-0.537-0.085c-0.186-0.048-0.344-0.218-0.3-0.325c0.085-0.211,0.625-0.041,0.625-0.041l0.725-0.1
			c0.2-0.027-0.411-0.091-0.47-0.479c0,0,1.218-0.442,1.219-0.697c0.003-0.265-0.644-0.195-0.501-0.338
			c0.774-0.78,0.587-2.381,0.646-3.331C74.98,11.623,74.301,12.418,73.897,12.229z M73.86,18.162c0-0.101-0.085-0.184-0.187-0.184
			c-0.103,0-0.188,0.083-0.188,0.184c0,0.102,0.085,0.184,0.188,0.184C73.775,18.346,73.86,18.264,73.86,18.162z M73.405,18.796
			c0,0.101,0.083,0.184,0.186,0.184c0.104,0,0.187-0.083,0.187-0.184c0-0.102-0.083-0.183-0.187-0.183
			C73.488,18.613,73.405,18.693,73.405,18.796z M73.591,19.516c0.104,0,0.187-0.083,0.187-0.184s-0.083-0.183-0.187-0.183
			c-0.103,0-0.186,0.082-0.186,0.183S73.488,19.516,73.591,19.516z M73.08,18.053c0.103,0,0.187-0.083,0.187-0.184
			c0-0.101-0.084-0.184-0.187-0.184s-0.188,0.083-0.188,0.184C72.893,17.97,72.978,18.053,73.08,18.053z M73.029,18.621
			c0.103,0,0.188-0.082,0.188-0.183c0-0.101-0.085-0.184-0.188-0.184c-0.102,0-0.186,0.083-0.186,0.184
			C72.844,18.54,72.928,18.621,73.029,18.621z M73.048,18.855c-0.104,0-0.188,0.083-0.188,0.184c0,0.102,0.084,0.184,0.188,0.184
			c0.102,0,0.186-0.082,0.186-0.184C73.233,18.938,73.149,18.855,73.048,18.855z M72.705,18.227c0-0.101-0.083-0.183-0.187-0.183
			c-0.103,0-0.186,0.082-0.186,0.183c0,0.102,0.083,0.185,0.186,0.185C72.622,18.411,72.705,18.328,72.705,18.227z M72.267,18.926
			c0,0.1,0.084,0.183,0.186,0.183c0.104,0,0.188-0.083,0.188-0.183c0-0.102-0.084-0.184-0.188-0.184
			C72.351,18.742,72.267,18.825,72.267,18.926z M72.129,18.617c0-0.101-0.084-0.184-0.188-0.184c-0.102,0-0.186,0.083-0.186,0.184
			c0,0.102,0.084,0.184,0.186,0.184C72.045,18.8,72.129,18.719,72.129,18.617z M70.021,15.177c0,0,0.105-0.36,0-0.484
			c-0.104-0.121-0.474-0.08-0.474-0.08C69.739,14.702,69.916,14.834,70.021,15.177z M73.743,20.758c0,0.15,0.125,0.292,0.277,0.31
			c0.172-0.001,0.326-0.164,0.314-0.333c-0.013-0.154-0.158-0.286-0.314-0.286C73.868,20.465,73.743,20.606,73.743,20.758z
			 M74.612,18.414l-0.302-0.591c0.013,0.685-0.017,1.778-0.421,1.974l-0.518,0.25c0,0-0.53-0.367-0.824-0.5
			c-0.379-0.171-0.785-0.461-1.193-0.373c0,0-0.345,0.121-0.523,0.115c-0.14-0.005-0.459-0.239-0.401-0.115
			c0,0,0.479,0.589,0.432,0.927c-0.022,0.158-0.476,0.221-0.331,0.456c0,0,0.573,0.226,0.522,0.5
			c-0.57,0.219-0.751,0.019-1.043-0.155c0.113-0.09,0.159-0.252,0.111-0.387c-0.048-0.135-0.188-0.232-0.332-0.233
			c-0.186,0-0.355,0.167-0.355,0.35c-0.015,0.131,0.206,0.292,0.373,0.447c0,0,0.745,0.309,0.692,0.608
			c-0.488,0.239-1.051,0.38-1.355,0.85c-0.098,0.15-0.089,0.493-0.168,0.728c-0.363,0.616-0.215,1.042-0.286,1.55l0.069,1.177
			c0.011,0.166,0.189-0.381,0.355-0.356c0.152,0.021,0.216,0.401,0.216,0.401l0.168,1.08c0.015,0.093,0.623-0.833,1.095-0.918
			c0.117-0.021,0.337,0.121,0.337,0.121s0.644-0.656,0.763-1.079c0.059-0.212-0.048-0.66-0.048-0.66s-0.168-0.124-0.168-0.212
			c0-0.219,0.479-0.687,0.377-0.881l-0.361-0.789l0.578,0.254c0.059,0.113,0.187,0.188,0.315,0.188
			c0.172-0.017,0.318-0.175,0.318-0.347c0-0.172-0.146-0.331-0.318-0.347c-0.119,0-0.234,0.062-0.298,0.161
			c-0.442-0.701-0.239-1.194-0.127-1.274l0.455-0.32c0.281-0.198-0.115,0.532-0.008,0.82c0.081,0.219,0.491,0.24,0.523,0.471
			c0,0,0.036,0.475,0.185,0.639c0.401,0.438,1.729,0.472,1.604,0.334c0,0-0.27-0.213-0.333-0.364
			c-0.102-0.239,0.177-0.65-0.054-0.775c0,0-0.336-0.196-0.43-0.349c-0.141-0.227-0.069-0.707-0.069-0.707s-0.25-0.177-0.31-0.311
			c-0.068-0.158-0.054-0.458,0.115-0.501c0.784-0.203,1.336-0.725,1.341-1.093C74.995,18.873,74.612,18.414,74.612,18.414z
			 M69.597,21.749c0.153,0,0.277-0.124,0.277-0.275c0-0.152-0.126-0.276-0.279-0.275c-0.154,0-0.278,0.123-0.278,0.275
			C69.314,21.625,69.439,21.749,69.597,21.749C69.595,21.749,69.595,21.749,69.597,21.749z M5.971,12.51
			c0.34,0.161,0.201,0.866,0.282,0.939C6.496,13.367,7,12.174,7.276,12.157c0.337-0.02,0.432,0.79,0.562,0.833
			c0.336-0.405,0.614-1.633,0.614-1.633c0.119-0.126,0.939,0.236,1.259,0.131c0.474-0.154,0.622-1.082,0.622-1.082
			c-0.389,0.087-0.725,0.052-0.922-0.4c-0.261-0.595,0.911-0.981,1.129-1.521c0.3-0.743,0.764-2.919,0.278-2.219
			c0,0-0.134,0.56-0.294,0.519c-0.047-0.012-0.464-0.741-0.464-0.741C9.859,5.72,9.983,7.306,9.836,7.657
			c-0.183,0.439-1.149,0.771-1.251-0.19C8.633,7.06,9.374,6.583,9.374,6.583L8.698,6.33C8.122,6.113,7.396,7.443,6.867,7.491
			c-0.13,0.012-0.343-0.061-0.343-0.061C6.322,7.347,5.979,7.002,5.868,7.189c-0.05,0.085,0.261,0.249,0.357,0.32
			c0.095,0.07-0.008,0.152,0.07,0.213c0.139,0.109,0.353,0.036,0.538,0.085c0.185,0.049,0.342,0.219,0.299,0.326
			c-0.085,0.21-0.625,0.041-0.625,0.041l-0.727,0.1c-0.199,0.029,0.413,0.09,0.471,0.479c0,0-1.216,0.442-1.219,0.697
			C5.031,9.714,5.677,9.644,5.535,9.787c-0.774,0.78-0.586,2.38-0.646,3.331C4.889,13.117,5.568,12.322,5.971,12.51z M9.847,9.563
			c0,0-0.105,0.359,0,0.483c0.104,0.122,0.473,0.081,0.473,0.081C10.129,10.039,9.952,9.906,9.847,9.563z M6.195,6.762
			c0.103,0,0.186-0.083,0.186-0.184S6.298,6.395,6.195,6.395c-0.104,0-0.186,0.082-0.186,0.183S6.093,6.762,6.195,6.762z
			 M6.278,6.128c0.103,0,0.186-0.083,0.186-0.184c0-0.101-0.084-0.183-0.186-0.183c-0.103,0-0.187,0.082-0.187,0.183
			C6.092,6.045,6.176,6.128,6.278,6.128z M6.278,5.591c0.103,0,0.186-0.082,0.186-0.183c0-0.101-0.083-0.184-0.186-0.184
			c-0.104,0-0.187,0.083-0.187,0.184C6.092,5.509,6.176,5.591,6.278,5.591z M6.789,7.054c0.104,0,0.186-0.083,0.186-0.184
			S6.892,6.688,6.789,6.688c-0.103,0-0.186,0.081-0.186,0.184C6.603,6.973,6.687,7.054,6.789,7.054z M6.838,6.119
			c-0.103,0-0.186,0.082-0.186,0.183s0.083,0.183,0.186,0.183c0.103,0,0.187-0.082,0.187-0.183S6.941,6.119,6.838,6.119z
			 M6.822,5.883c0.103,0,0.186-0.082,0.186-0.183c0-0.101-0.083-0.184-0.186-0.184S6.636,5.599,6.636,5.7
			C6.636,5.802,6.719,5.883,6.822,5.883z M7.35,6.696c0.103,0,0.187-0.082,0.187-0.183c0-0.101-0.083-0.184-0.187-0.184
			c-0.104,0-0.186,0.083-0.186,0.184C7.164,6.615,7.247,6.696,7.35,6.696z M7.416,5.998c0.103,0,0.186-0.083,0.186-0.184
			c0-0.101-0.084-0.183-0.186-0.183S7.229,5.712,7.229,5.813C7.229,5.915,7.313,5.998,7.416,5.998z M7.927,6.307
			c0.103,0,0.186-0.083,0.186-0.184c0-0.101-0.083-0.184-0.186-0.184c-0.103,0-0.187,0.083-0.187,0.184
			C7.74,6.225,7.824,6.307,7.927,6.307z M5.02,26.731c0,0,0.679-0.794,1.082-0.606c0.34,0.16,0.201,0.866,0.283,0.938
			c0.244-0.081,0.746-1.275,1.022-1.291c0.338-0.019,0.433,0.79,0.563,0.833c0.336-0.405,0.615-1.633,0.615-1.633
			c0.119-0.127,0.939,0.235,1.258,0.132c0.476-0.155,0.623-1.083,0.623-1.083c-0.389,0.086-0.725,0.051-0.922-0.399
			c-0.261-0.596,0.91-0.982,1.129-1.523c0.3-0.744,0.764-2.918,0.278-2.219c0,0-0.135,0.559-0.293,0.52
			c-0.046-0.012-0.464-0.742-0.464-0.742c-0.202-0.323-0.078,1.263-0.224,1.612c-0.184,0.439-1.151,0.772-1.252-0.188
			c0.047-0.408,0.789-0.884,0.789-0.884L8.83,19.943c-0.577-0.217-1.303,1.113-1.833,1.162c-0.129,0.011-0.344-0.061-0.344-0.061
			c-0.202-0.083-0.544-0.427-0.655-0.241c-0.05,0.085,0.262,0.249,0.357,0.319s-0.007,0.153,0.071,0.214
			c0.139,0.109,0.353,0.036,0.538,0.084c0.185,0.049,0.343,0.219,0.299,0.325c-0.085,0.211-0.625,0.041-0.625,0.041l-0.727,0.1
			c-0.2,0.027,0.412,0.09,0.47,0.48c0,0-1.217,0.441-1.219,0.697c-0.002,0.264,0.644,0.194,0.502,0.338
			C4.892,24.181,5.08,25.78,5.02,26.731z M6.141,20.193c0,0.101,0.083,0.183,0.186,0.183c0.103,0,0.186-0.082,0.186-0.183
			c0-0.102-0.083-0.184-0.186-0.184C6.224,20.009,6.141,20.09,6.141,20.193z M6.409,19.742c0.103,0,0.187-0.082,0.187-0.183
			c0-0.101-0.084-0.184-0.187-0.184s-0.186,0.083-0.186,0.184C6.224,19.66,6.306,19.742,6.409,19.742z M6.409,19.206
			c0.103,0,0.187-0.083,0.187-0.184c0-0.102-0.083-0.184-0.187-0.184s-0.186,0.082-0.186,0.184
			C6.224,19.123,6.306,19.206,6.409,19.206z M6.92,20.668c0.103,0,0.186-0.082,0.186-0.183c0-0.102-0.084-0.184-0.186-0.184
			c-0.103,0-0.186,0.083-0.186,0.184C6.734,20.586,6.817,20.668,6.92,20.668z M6.784,19.916c0,0.101,0.083,0.184,0.186,0.184
			c0.104,0,0.186-0.083,0.186-0.184c0-0.101-0.083-0.183-0.186-0.183S6.784,19.815,6.784,19.916z M6.953,19.13
			c-0.103,0-0.186,0.082-0.186,0.184c0,0.101,0.084,0.184,0.186,0.184c0.103,0,0.186-0.083,0.186-0.184
			C7.138,19.212,7.057,19.13,6.953,19.13z M7.294,20.126c0,0.102,0.083,0.184,0.186,0.184c0.102,0,0.186-0.082,0.186-0.184
			c0-0.101-0.083-0.183-0.186-0.183C7.378,19.943,7.294,20.025,7.294,20.126z M7.733,19.428c0-0.101-0.084-0.184-0.186-0.184
			c-0.103,0-0.186,0.083-0.186,0.184c0,0.101,0.083,0.183,0.186,0.183C7.649,19.611,7.733,19.53,7.733,19.428z M8.244,19.737
			c0-0.101-0.084-0.184-0.186-0.184c-0.103,0-0.187,0.083-0.187,0.184c0,0.102,0.083,0.184,0.187,0.184
			C8.161,19.921,8.244,19.839,8.244,19.737z M9.978,23.177c0,0-0.105,0.359,0,0.483c0.104,0.121,0.474,0.081,0.474,0.081
			C10.261,23.652,10.083,23.521,9.978,23.177z M11.241,12.364c-0.01-0.167-0.188,0.38-0.354,0.355
			c-0.153-0.022-0.215-0.401-0.215-0.401l-0.169-1.08c-0.015-0.093-0.623,0.835-1.095,0.919C9.29,12.178,9.07,12.037,9.07,12.037
			s-0.644,0.656-0.763,1.078c-0.059,0.212,0.047,0.661,0.047,0.661s0.168,0.123,0.168,0.211c0,0.219-0.478,0.687-0.377,0.881
			l0.361,0.791l-0.578-0.254c-0.059-0.114-0.185-0.189-0.314-0.189c-0.172,0.017-0.32,0.175-0.32,0.347s0.147,0.332,0.32,0.347
			c0.118,0,0.233-0.062,0.297-0.16c0.442,0.7,0.24,1.193,0.127,1.273l-0.455,0.32c-0.281,0.198,0.115-0.532,0.008-0.82
			c-0.082-0.217-0.492-0.238-0.524-0.469c0,0-0.036-0.476-0.186-0.64c-0.4-0.438-1.728-0.472-1.602-0.334
			c0,0,0.268,0.214,0.332,0.365c0.103,0.239-0.178,0.649,0.052,0.774c0,0,0.336,0.197,0.432,0.349
			c0.141,0.228,0.069,0.707,0.069,0.707s0.25,0.177,0.309,0.311c0.07,0.158,0.054,0.458-0.115,0.501
			c-0.783,0.204-1.334,0.726-1.34,1.094c-0.013,0.301,0.369,0.759,0.369,0.759l0.302,0.592c-0.013-0.686,0.016-1.779,0.422-1.974
			l0.517-0.25c0,0,0.531,0.367,0.823,0.499c0.38,0.171,0.787,0.463,1.192,0.374c0,0,0.346-0.121,0.524-0.116
			c0.14,0.005,0.46,0.239,0.402,0.116c0,0-0.479-0.591-0.432-0.928c0.022-0.158,0.477-0.221,0.33-0.456c0,0-0.573-0.226-0.522-0.5
			c0.57-0.218,0.751-0.019,1.043,0.155c-0.112,0.09-0.159,0.252-0.111,0.386c0.048,0.135,0.188,0.232,0.332,0.233
			c0.186,0,0.355-0.167,0.355-0.35c0.015-0.131-0.206-0.293-0.373-0.448c0,0-0.744-0.307-0.693-0.607
			c0.488-0.24,1.052-0.38,1.357-0.849c0.098-0.151,0.088-0.494,0.168-0.729c0.363-0.616,0.214-1.042,0.286-1.549L11.241,12.364z
			 M6.257,17.597c0-0.151-0.126-0.292-0.279-0.311c-0.172,0.001-0.326,0.164-0.314,0.333c0.013,0.154,0.158,0.286,0.314,0.287
			C6.131,17.888,6.257,17.748,6.257,17.597z M10.406,16.605h-0.002c-0.154,0-0.279,0.124-0.279,0.276
			c0,0.152,0.126,0.275,0.28,0.274c0.153,0,0.279-0.123,0.279-0.274C10.685,16.729,10.56,16.605,10.406,16.605z M5.02,40.705
			c0,0,0.679-0.796,1.082-0.606c0.34,0.159,0.201,0.866,0.283,0.938c0.244-0.082,0.746-1.276,1.022-1.292
			c0.338-0.019,0.433,0.789,0.563,0.833c0.336-0.404,0.615-1.633,0.615-1.633c0.119-0.127,0.939,0.234,1.258,0.131
			c0.476-0.154,0.623-1.083,0.623-1.083c-0.389,0.087-0.725,0.052-0.922-0.399c-0.261-0.595,0.91-0.982,1.129-1.523
			c0.3-0.744,0.764-2.918,0.278-2.219c0,0-0.135,0.56-0.293,0.519c-0.046-0.011-0.464-0.742-0.464-0.742
			c-0.202-0.322-0.078,1.263-0.224,1.613c-0.184,0.442-1.151,0.773-1.253-0.186c0.047-0.408,0.789-0.884,0.789-0.884l-0.675-0.254
			c-0.577-0.216-1.303,1.113-1.832,1.162c-0.13,0.012-0.344-0.061-0.344-0.061c-0.202-0.084-0.545-0.429-0.656-0.241
			c-0.05,0.084,0.262,0.248,0.357,0.319c0.095,0.07-0.007,0.153,0.072,0.214c0.139,0.108,0.352,0.036,0.537,0.084
			c0.185,0.049,0.343,0.219,0.299,0.325c-0.085,0.21-0.625,0.041-0.625,0.041l-0.727,0.101c-0.2,0.027,0.412,0.089,0.47,0.479
			c0,0-1.216,0.442-1.219,0.697c-0.002,0.264,0.644,0.195,0.502,0.337C4.892,38.154,5.08,39.754,5.02,40.705z M6.141,34.165
			c0,0.102,0.083,0.184,0.186,0.184c0.103,0,0.186-0.083,0.186-0.184c0-0.101-0.083-0.184-0.186-0.184
			C6.224,33.981,6.141,34.064,6.141,34.165z M6.409,33.715c0.103,0,0.187-0.082,0.187-0.183c0-0.102-0.083-0.184-0.187-0.184
			s-0.186,0.083-0.186,0.184C6.224,33.633,6.306,33.715,6.409,33.715z M6.409,33.18c0.103,0,0.187-0.083,0.187-0.185
			c0-0.101-0.083-0.183-0.187-0.183s-0.186,0.082-0.186,0.183C6.224,33.097,6.306,33.18,6.409,33.18z M6.92,34.642
			c0.103,0,0.186-0.083,0.186-0.184c0-0.1-0.084-0.184-0.186-0.184c-0.103,0-0.186,0.083-0.186,0.184
			C6.734,34.559,6.817,34.642,6.92,34.642z M6.784,33.888c0,0.102,0.083,0.184,0.186,0.184c0.104,0,0.186-0.083,0.186-0.184
			c0-0.101-0.083-0.183-0.186-0.183S6.784,33.787,6.784,33.888z M6.953,33.104c-0.103,0-0.186,0.083-0.186,0.183
			c0,0.102,0.084,0.185,0.186,0.185c0.103,0,0.186-0.083,0.186-0.185C7.139,33.187,7.057,33.104,6.953,33.104z M7.294,34.101
			c0,0.102,0.083,0.185,0.186,0.185c0.102,0,0.186-0.083,0.186-0.185c0-0.101-0.083-0.183-0.186-0.183
			C7.378,33.917,7.294,33.999,7.294,34.101z M7.733,33.402c0-0.103-0.084-0.184-0.186-0.184c-0.103,0-0.186,0.082-0.186,0.184
			c0,0.1,0.083,0.183,0.186,0.183C7.649,33.585,7.733,33.502,7.733,33.402z M8.244,33.709c0-0.1-0.084-0.183-0.186-0.183
			c-0.103,0-0.187,0.083-0.187,0.183c0,0.102,0.084,0.184,0.187,0.184C8.16,33.894,8.244,33.812,8.244,33.709z M9.978,37.15
			c0,0-0.105,0.36,0,0.483c0.104,0.121,0.474,0.081,0.474,0.081C10.261,37.626,10.083,37.494,9.978,37.15z M6.257,31.57
			c0-0.15-0.126-0.292-0.279-0.309c-0.172,0-0.326,0.163-0.314,0.332c0.013,0.155,0.158,0.287,0.314,0.287
			C6.131,31.862,6.257,31.721,6.257,31.57z M11.241,26.337c-0.01-0.166-0.188,0.379-0.354,0.355
			c-0.152-0.021-0.215-0.402-0.215-0.402l-0.169-1.079c-0.015-0.093-0.623,0.834-1.094,0.918C9.29,26.15,9.07,26.009,9.07,26.009
			s-0.644,0.656-0.763,1.079c-0.059,0.212,0.047,0.66,0.047,0.66s0.168,0.123,0.168,0.212c0,0.218-0.478,0.687-0.377,0.881
			l0.361,0.789l-0.578-0.253c-0.059-0.113-0.185-0.189-0.314-0.189c-0.173,0.018-0.32,0.176-0.32,0.348
			c0,0.171,0.147,0.331,0.32,0.349c0.118-0.001,0.233-0.063,0.296-0.161c0.443,0.7,0.24,1.193,0.127,1.274l-0.454,0.319
			c-0.281,0.199,0.115-0.532,0.008-0.82c-0.082-0.219-0.492-0.24-0.524-0.47c0,0-0.036-0.475-0.186-0.639
			c-0.4-0.438-1.728-0.473-1.602-0.334c0,0,0.268,0.213,0.332,0.363c0.103,0.239-0.178,0.65,0.052,0.776
			c0,0,0.336,0.196,0.432,0.349c0.141,0.228,0.069,0.707,0.069,0.707s0.25,0.177,0.309,0.31c0.07,0.159,0.054,0.458-0.115,0.501
			c-0.783,0.204-1.334,0.726-1.34,1.093c-0.013,0.301,0.369,0.76,0.369,0.76l0.302,0.592c-0.013-0.686,0.016-1.778,0.421-1.974
			l0.517-0.25c0,0,0.531,0.368,0.824,0.5c0.379,0.171,0.787,0.461,1.192,0.373c0,0,0.346-0.12,0.524-0.114
			c0.14,0.004,0.46,0.239,0.402,0.114c0,0-0.479-0.589-0.432-0.927c0.022-0.159,0.477-0.221,0.331-0.455c0,0-0.573-0.226-0.522-0.5
			c0.57-0.219,0.751-0.019,1.043,0.155c-0.112,0.09-0.159,0.252-0.111,0.386c0.048,0.135,0.188,0.234,0.333,0.234
			c0.186,0,0.354-0.167,0.354-0.35c0.015-0.131-0.206-0.293-0.373-0.448c0,0-0.744-0.307-0.692-0.607
			c0.488-0.24,1.052-0.381,1.357-0.849c0.097-0.151,0.088-0.494,0.168-0.729c0.363-0.614,0.214-1.042,0.286-1.549L11.241,26.337z
			 M10.406,30.579h-0.002c-0.154,0-0.279,0.124-0.279,0.275c0,0.152,0.126,0.276,0.28,0.276c0.153-0.001,0.279-0.125,0.279-0.276
			C10.685,30.702,10.56,30.58,10.406,30.579z M10.949,47.882c0,0-0.135,0.56-0.293,0.519c-0.046-0.011-0.464-0.742-0.464-0.742
			c-0.202-0.322-0.078,1.264-0.224,1.613c-0.183,0.439-1.151,0.771-1.252-0.188c0.047-0.408,0.789-0.885,0.789-0.885l-0.675-0.253
			c-0.577-0.217-1.303,1.113-1.832,1.16c-0.13,0.014-0.344-0.059-0.344-0.059c-0.202-0.086-0.545-0.43-0.656-0.243
			c-0.05,0.086,0.262,0.25,0.357,0.32s-0.007,0.153,0.072,0.213c0.139,0.108,0.352,0.036,0.537,0.086
			c0.185,0.048,0.343,0.218,0.299,0.324c-0.085,0.212-0.625,0.041-0.625,0.041l-0.727,0.1c-0.2,0.027,0.412,0.091,0.47,0.48
			c0,0-1.216,0.442-1.219,0.696c-0.002,0.264,0.644,0.194,0.502,0.338c-0.774,0.779-0.586,2.379-0.646,3.331
			c0,0,0.679-0.796,1.082-0.606c0.34,0.158,0.201,0.864,0.283,0.938c0.243-0.083,0.746-1.277,1.022-1.293
			c0.338-0.019,0.432,0.789,0.563,0.832c0.336-0.404,0.615-1.634,0.615-1.634c0.119-0.125,0.939,0.237,1.258,0.133
			c0.476-0.154,0.623-1.082,0.623-1.082c-0.388,0.088-0.724,0.053-0.921-0.399c-0.261-0.595,0.91-0.981,1.129-1.522
			C10.972,49.357,11.436,47.182,10.949,47.882z M6.141,48.193c0,0.102,0.083,0.184,0.186,0.184c0.103,0,0.186-0.082,0.186-0.184
			c0-0.1-0.083-0.183-0.186-0.183C6.224,48.011,6.141,48.092,6.141,48.193z M6.409,47.743c0.103,0,0.187-0.082,0.187-0.184
			c0-0.101-0.083-0.184-0.187-0.184s-0.186,0.083-0.186,0.184C6.224,47.661,6.306,47.743,6.409,47.743z M6.409,47.207
			c0.103,0,0.187-0.082,0.187-0.184s-0.083-0.185-0.187-0.185s-0.186,0.083-0.186,0.185S6.306,47.207,6.409,47.207z M6.92,48.67
			c0.103,0,0.186-0.083,0.186-0.183c0-0.102-0.084-0.184-0.186-0.184c-0.103,0-0.186,0.082-0.186,0.184
			C6.734,48.587,6.817,48.67,6.92,48.67z M6.784,47.917c0,0.101,0.083,0.185,0.186,0.185c0.104,0,0.186-0.084,0.186-0.185
			c0-0.102-0.083-0.185-0.186-0.185S6.784,47.815,6.784,47.917z M6.953,47.134c-0.103,0-0.186,0.08-0.186,0.182
			S6.851,47.5,6.953,47.5c0.103,0,0.186-0.083,0.186-0.185S7.057,47.134,6.953,47.134z M7.294,48.128
			c0,0.102,0.083,0.184,0.186,0.184c0.102,0,0.186-0.082,0.186-0.184s-0.083-0.185-0.186-0.185
			C7.378,47.943,7.294,48.027,7.294,48.128z M7.733,47.43c0-0.101-0.084-0.183-0.186-0.183c-0.103,0-0.186,0.082-0.186,0.183
			c0,0.102,0.083,0.184,0.186,0.184C7.649,47.613,7.733,47.531,7.733,47.43z M8.244,47.739c0-0.102-0.084-0.185-0.186-0.185
			c-0.103,0-0.187,0.083-0.187,0.185c0,0.1,0.084,0.183,0.187,0.183C8.16,47.922,8.244,47.839,8.244,47.739z M9.978,51.179
			c0,0-0.105,0.359,0,0.483c0.104,0.12,0.474,0.08,0.474,0.08C10.261,51.653,10.083,51.521,9.978,51.179z M11.241,40.366
			c-0.01-0.167-0.188,0.379-0.354,0.355c-0.152-0.022-0.215-0.402-0.215-0.402l-0.169-1.079c-0.015-0.094-0.623,0.834-1.094,0.917
			C9.29,40.179,9.07,40.037,9.07,40.037s-0.644,0.656-0.763,1.08c-0.059,0.211,0.047,0.658,0.047,0.658s0.168,0.124,0.168,0.214
			c0,0.218-0.478,0.687-0.377,0.881l0.361,0.788l-0.578-0.252c-0.059-0.115-0.185-0.19-0.314-0.19
			c-0.173,0.018-0.32,0.176-0.32,0.348s0.147,0.33,0.32,0.348c0.118,0,0.233-0.063,0.296-0.16c0.443,0.7,0.24,1.192,0.127,1.273
			l-0.454,0.319c-0.281,0.198,0.115-0.532,0.008-0.82c-0.082-0.219-0.492-0.238-0.524-0.47c0,0-0.036-0.475-0.186-0.64
			c-0.4-0.438-1.728-0.472-1.602-0.334c0,0,0.268,0.214,0.332,0.365c0.103,0.238-0.178,0.649,0.052,0.774
			c0,0,0.336,0.197,0.432,0.349c0.141,0.227,0.069,0.707,0.069,0.707s0.25,0.177,0.309,0.31c0.07,0.158,0.054,0.458-0.115,0.501
			c-0.783,0.204-1.334,0.726-1.34,1.094C5.006,47.48,5.388,47.94,5.388,47.94l0.302,0.59c-0.013-0.684,0.016-1.777,0.421-1.974
			l0.517-0.249c0,0,0.531,0.367,0.824,0.499c0.379,0.171,0.787,0.462,1.192,0.373c0,0,0.346-0.12,0.524-0.115
			c0.14,0.005,0.46,0.239,0.402,0.115c0,0-0.479-0.59-0.432-0.928c0.022-0.157,0.477-0.22,0.331-0.454c0,0-0.573-0.227-0.522-0.5
			c0.57-0.219,0.751-0.019,1.043,0.154c-0.112,0.091-0.159,0.253-0.111,0.387c0.048,0.135,0.188,0.233,0.333,0.233
			c0.186,0,0.354-0.166,0.354-0.35c0.015-0.131-0.206-0.293-0.373-0.447c0,0-0.744-0.309-0.692-0.607
			c0.488-0.241,1.052-0.381,1.357-0.851c0.097-0.15,0.088-0.493,0.168-0.728c0.363-0.615,0.214-1.042,0.286-1.55L11.241,40.366z
			 M6.257,45.597c0-0.149-0.126-0.29-0.279-0.31c-0.172,0.001-0.326,0.164-0.314,0.334c0.013,0.153,0.158,0.285,0.314,0.286
			C6.131,45.89,6.257,45.748,6.257,45.597z M10.406,44.605h-0.002c-0.154,0-0.279,0.125-0.279,0.276c0,0.152,0.126,0.276,0.28,0.274
			c0.153,0,0.279-0.122,0.279-0.274C10.685,44.73,10.56,44.605,10.406,44.605z M6.102,67.86c0.34,0.16,0.201,0.865,0.283,0.938
			c0.244-0.08,0.746-1.274,1.022-1.29c0.338-0.02,0.433,0.789,0.563,0.831c0.336-0.404,0.615-1.633,0.615-1.633
			c0.119-0.127,0.939,0.235,1.258,0.131c0.476-0.154,0.623-1.081,0.623-1.081c-0.389,0.086-0.725,0.051-0.922-0.4
			c-0.261-0.596,0.91-0.982,1.129-1.522c0.3-0.744,0.764-2.919,0.278-2.219c0,0-0.135,0.559-0.293,0.519
			c-0.046-0.012-0.464-0.742-0.464-0.742c-0.202-0.322-0.078,1.264-0.224,1.613c-0.184,0.439-1.151,0.771-1.252-0.189
			c0.047-0.408,0.789-0.885,0.789-0.885L8.83,61.677c-0.577-0.216-1.303,1.113-1.833,1.161c-0.129,0.013-0.344-0.06-0.344-0.06
			c-0.202-0.086-0.544-0.429-0.655-0.242c-0.05,0.085,0.262,0.249,0.357,0.319s-0.007,0.153,0.071,0.214
			c0.139,0.108,0.353,0.036,0.538,0.085c0.185,0.049,0.343,0.219,0.299,0.324c-0.085,0.212-0.625,0.042-0.625,0.042l-0.727,0.101
			c-0.2,0.025,0.412,0.09,0.47,0.479c0,0-1.217,0.442-1.219,0.696c-0.002,0.265,0.644,0.195,0.502,0.339
			c-0.774,0.779-0.586,2.378-0.646,3.33C5.02,68.466,5.699,67.672,6.102,67.86z M6.141,61.928c0,0.101,0.083,0.185,0.186,0.185
			c0.103,0,0.186-0.084,0.186-0.185c0-0.102-0.083-0.184-0.186-0.184C6.224,61.744,6.141,61.826,6.141,61.928z M6.596,61.295
			c0-0.102-0.083-0.184-0.187-0.184s-0.186,0.082-0.186,0.184c0,0.101,0.083,0.183,0.186,0.183S6.596,61.396,6.596,61.295z
			 M6.409,60.574c-0.103,0-0.186,0.082-0.186,0.184c0,0.101,0.083,0.183,0.186,0.183s0.187-0.082,0.187-0.183
			C6.596,60.656,6.511,60.574,6.409,60.574z M6.92,62.036c-0.103,0-0.186,0.083-0.186,0.185s0.083,0.184,0.186,0.184
			s0.186-0.082,0.186-0.184S7.023,62.036,6.92,62.036z M6.969,61.468c-0.103,0-0.186,0.082-0.186,0.185
			c0,0.101,0.083,0.183,0.186,0.183c0.104,0,0.186-0.082,0.186-0.183C7.156,61.55,7.073,61.468,6.969,61.468z M6.953,61.233
			c0.103,0,0.186-0.083,0.186-0.185c0-0.101-0.083-0.183-0.186-0.183s-0.186,0.082-0.186,0.183
			C6.767,61.15,6.851,61.233,6.953,61.233z M7.294,61.863c0,0.101,0.083,0.182,0.186,0.182c0.102,0,0.186-0.081,0.186-0.182
			c0-0.102-0.083-0.185-0.186-0.185C7.378,61.679,7.294,61.762,7.294,61.863z M7.733,61.164c0-0.102-0.084-0.184-0.186-0.184
			c-0.103,0-0.186,0.082-0.186,0.184s0.083,0.183,0.186,0.183C7.649,61.347,7.733,61.266,7.733,61.164z M7.871,61.473
			c0,0.102,0.084,0.184,0.186,0.184c0.103,0,0.186-0.082,0.186-0.184c0-0.101-0.083-0.184-0.186-0.184
			C7.955,61.289,7.871,61.372,7.871,61.473z M9.978,64.913c0,0-0.105,0.359,0,0.482c0.104,0.122,0.474,0.081,0.474,0.081
			C10.261,65.389,10.083,65.257,9.978,64.913z M6.257,59.332c0-0.151-0.126-0.292-0.279-0.31c-0.172,0.001-0.326,0.163-0.314,0.332
			c0.013,0.154,0.158,0.286,0.314,0.287C6.131,59.624,6.257,59.484,6.257,59.332z M5.689,62.268
			c-0.013-0.685,0.016-1.777,0.422-1.975l0.517-0.25c0,0,0.531,0.368,0.823,0.5c0.38,0.171,0.787,0.461,1.192,0.373
			c0,0,0.346-0.12,0.524-0.115c0.14,0.006,0.46,0.239,0.402,0.115c0,0-0.479-0.59-0.432-0.927c0.022-0.158,0.477-0.221,0.33-0.456
			c0,0-0.573-0.227-0.522-0.499c0.57-0.219,0.751-0.019,1.043,0.155c-0.112,0.091-0.159,0.251-0.111,0.385
			c0.048,0.136,0.188,0.234,0.332,0.234c0.186,0,0.355-0.165,0.355-0.35c0.015-0.132-0.206-0.292-0.373-0.448
			c0,0-0.744-0.307-0.693-0.608c0.488-0.238,1.052-0.379,1.357-0.848c0.098-0.151,0.088-0.494,0.168-0.729
			c0.363-0.614,0.214-1.042,0.286-1.549l-0.07-1.177c-0.01-0.165-0.188,0.381-0.354,0.355c-0.152-0.021-0.215-0.401-0.215-0.401
			l-0.169-1.079c-0.015-0.093-0.623,0.834-1.094,0.917C9.29,53.913,9.07,53.772,9.07,53.772s-0.644,0.656-0.763,1.079
			c-0.059,0.212,0.047,0.659,0.047,0.659s0.168,0.123,0.168,0.212c0,0.218-0.478,0.687-0.377,0.881l0.361,0.79L7.929,57.14
			c-0.059-0.113-0.185-0.188-0.314-0.188c-0.173,0.017-0.32,0.175-0.32,0.347s0.147,0.331,0.32,0.348
			c0.118-0.001,0.233-0.062,0.296-0.161c0.443,0.7,0.24,1.193,0.127,1.273l-0.454,0.32c-0.281,0.199,0.115-0.532,0.008-0.82
			C7.51,58.04,7.1,58.02,7.067,57.787c0,0-0.036-0.475-0.186-0.639c-0.4-0.437-1.728-0.472-1.602-0.334c0,0,0.268,0.215,0.332,0.365
			c0.103,0.239-0.178,0.649,0.052,0.774c0,0,0.336,0.196,0.432,0.349c0.141,0.228,0.069,0.707,0.069,0.707s0.25,0.177,0.309,0.311
			c0.07,0.158,0.054,0.457-0.115,0.5c-0.783,0.203-1.334,0.727-1.34,1.095c-0.013,0.3,0.369,0.759,0.369,0.759L5.689,62.268z
			 M10.404,58.341c-0.154,0.001-0.279,0.125-0.279,0.275c0,0.153,0.126,0.276,0.28,0.276c0.153-0.001,0.279-0.123,0.279-0.276
			C10.684,58.465,10.559,58.341,10.404,58.341L10.404,58.341z M54.307,19.874c-0.621,0.341-1.217,0.727-1.781,1.149
			c-3.275,2.458-5.497,6.234-5.877,10.542l-1.158,9.67l0.52-0.055c1.104,0.005,2.093,0.786,2.317,1.908
			c0.257,1.283-0.579,2.531-1.863,2.788l-1.428,0.286c-0.485-0.915-0.97-1.827-1.418-2.761c-1.345-3.375-2.451-6.838-2.365-10.522
			c0.043-3.954,0.529-7.901,0.595-11.856c0-1.801-0.674-3.442-1.781-4.696c-1.106,1.254-1.78,2.895-1.78,4.696
			c0.065,3.956,0.552,7.903,0.594,11.856c0.088,3.686-1.019,7.147-2.364,10.522c-0.448,0.934-0.934,1.846-1.418,2.761l-1.427-0.287
			c-1.285-0.257-2.12-1.505-1.863-2.788c0.225-1.123,1.214-1.902,2.317-1.907l0.519,0.055l-1.158-9.671
			c-0.379-4.307-2.603-8.083-5.877-10.542c-0.563-0.422-1.159-0.809-1.78-1.149v34.348h7.935c0.594,3.218,2.367,6.023,4.858,7.946
			c0.593,0.409,1.088,0.947,1.446,1.575c0.356-0.628,0.853-1.166,1.446-1.575c2.492-1.925,4.266-4.729,4.859-7.946h7.935
			L54.307,19.874L54.307,19.874z M28.201,24.821c1.536,1.8,2.566,4.045,2.874,6.512l0.955,7.976
			c-1.216,0.605-2.138,1.714-2.484,3.058h-1.344L28.201,24.821L28.201,24.821z M33.541,51.852h-5.34v-7.115h1.343
			c0.423,1.637,1.703,2.93,3.328,3.381l1.14,0.26C33.708,49.483,33.541,50.647,33.541,51.852z M38.88,59.213
			c-1.309-1.366-2.259-3.083-2.698-4.991h2.698V59.213z M35.913,51.852c0-1.018,0.152-1.998,0.418-2.927
			c1.44,0.201,2.55,1.431,2.55,2.927H35.913z M40.067,48.506c-0.665-0.823-1.567-1.437-2.604-1.75c1.09-1.839,1.967-3.817,2.604-5.9
			c0.637,2.083,1.515,4.062,2.605,5.9C41.635,47.069,40.732,47.684,40.067,48.506z M41.253,59.213v-4.991h2.699
			C43.514,56.13,42.562,57.847,41.253,59.213z M41.253,51.852c0-1.496,1.111-2.726,2.551-2.927c0.267,0.931,0.418,1.909,0.418,2.927
			H41.253z M51.934,51.852h-5.341c0-1.204-0.167-2.368-0.472-3.475l1.141-0.26c1.625-0.451,2.904-1.744,3.326-3.381h1.345
			L51.934,51.852L51.934,51.852z M51.934,42.364H50.59c-0.348-1.342-1.269-2.452-2.484-3.056l0.955-7.976
			c0.307-2.467,1.338-4.711,2.874-6.512L51.934,42.364L51.934,42.364z"/>
	</g>
</g>
</svg>
